<svg width="17" height="17" viewBox="0 0 17 17" fill="none" xmlns="http://www.w3.org/2000/svg">
<path d="M12.1337 14.6625L15.0875 11.73L14.195 10.8375L12.1337 12.8562L11.305 12.0275L10.4125 12.9412L12.1337 14.6625ZM2.55 5.1H12.75V3.4H2.55V5.1ZM12.75 17C11.5742 17 10.572 16.5855 9.74355 15.7564C8.91508 14.9274 8.50056 13.9253 8.5 12.75C8.49943 11.5747 8.91395 10.5726 9.74355 9.74355C10.5731 8.91452 11.5753 8.5 12.75 8.5C13.9247 8.5 14.9271 8.91452 15.7573 9.74355C16.5875 10.5726 17.0017 11.5747 17 12.75C16.9983 13.9253 16.5838 14.9277 15.7564 15.7573C14.9291 16.5869 13.927 17.0011 12.75 17ZM0 16.15V1.7C0 1.2325 0.1666 0.832433 0.4998 0.4998C0.833 0.167167 1.23307 0.000566667 1.7 0H13.6C14.0675 0 14.4678 0.1666 14.801 0.4998C15.1342 0.833 15.3006 1.23307 15.3 1.7V7.37375C15.0308 7.24625 14.7546 7.14 14.4712 7.055C14.1879 6.97 13.8975 6.90625 13.6 6.86375V1.7H1.7V13.6425H6.86375C6.93458 14.0817 7.04452 14.4996 7.19355 14.8962C7.34258 15.2929 7.53723 15.6683 7.7775 16.0225L7.65 16.15L6.375 14.875L5.1 16.15L3.825 14.875L2.55 16.15L1.275 14.875L0 16.15ZM2.55 11.9H6.86375C6.90625 11.6025 6.97 11.3121 7.055 11.0287C7.14 10.7454 7.24625 10.4692 7.37375 10.2H2.55V11.9ZM2.55 8.5H8.585C9.12333 7.97583 9.75035 7.56132 10.466 7.25645C11.1817 6.95158 11.9431 6.79943 12.75 6.8H2.55V8.5Z" fill="#4CAF50"/>
</svg>
