<svg width="20" height="20" viewBox="0 0 20 20" fill="none" xmlns="http://www.w3.org/2000/svg">
<path d="M6.19053 9.99999H10.9524M6.19053 11.9048H12.8572M6.19053 13.8095H9.04767M15.7143 14.7619V8.09523L10.9524 3.33333H6.19053C5.68535 3.33333 5.20087 3.53401 4.84366 3.89122C4.48645 4.24843 4.28577 4.73292 4.28577 5.23809V14.7619C4.28577 15.2671 4.48645 15.7516 4.84366 16.1088C5.20087 16.466 5.68535 16.6667 6.19053 16.6667H13.8096C14.3148 16.6667 14.7992 16.466 15.1564 16.1088C15.5137 15.7516 15.7143 15.2671 15.7143 14.7619Z" stroke="#0D5CB9" stroke-width="1.14286" stroke-linecap="round" stroke-linejoin="round"/>
<path d="M10.9524 3.33333V6.19047C10.9524 6.69565 11.1531 7.18013 11.5103 7.53734C11.8675 7.89455 12.352 8.09523 12.8572 8.09523H15.7143" stroke="#0D5CB9" stroke-width="1.14286" stroke-linecap="round" stroke-linejoin="round"/>
</svg>
