<svg width="108" height="90" viewBox="0 0 108 90" fill="none" xmlns="http://www.w3.org/2000/svg">
<mask id="mask0_49_150" style="mask-type:luminance" maskUnits="userSpaceOnUse" x="0" y="0" width="108" height="26">
<path d="M0 0H108V25.8203H0V0Z" fill="white"/>
</mask>
<g mask="url(#mask0_49_150)">
<path d="M0.00268555 25.5025V9.73169C0.00268555 4.35669 4.35295 0.0012207 9.72013 0.0012207H30.5977C32.655 0.0012207 34.6589 0.654866 36.3217 1.86711L45.4115 8.50122H98.28C103.647 8.50122 107.997 12.858 107.997 18.2317V25.5025H0.00268555Z" fill="#5EACDE"/>
</g>
<mask id="mask1_49_150" style="mask-type:luminance" maskUnits="userSpaceOnUse" x="0" y="15" width="108" height="75">
<path d="M0.00256348 15.0037H107.997V89.7485H0.00256348V15.0037Z" fill="white"/>
</mask>
<g mask="url(#mask1_49_150)">
<path d="M98.2799 15.0244H9.72001C4.35282 15.0244 0.00256348 19.3812 0.00256348 24.7549V80.0192C0.00256348 85.3929 4.35282 89.7484 9.72001 89.7484H98.2799C103.647 89.7484 107.997 85.3929 107.997 80.0192V24.7549C107.997 19.3812 103.647 15.0244 98.2799 15.0244Z" fill="#64C5FA"/>
</g>
</svg>
