<svg width="476" height="454" viewBox="0 0 476 454" fill="none" xmlns="http://www.w3.org/2000/svg">
<mask id="mask0_8630_2088" style="mask-type:luminance" maskUnits="userSpaceOnUse" x="46" y="0" width="384" height="382">
<path d="M46.9165 0H429.583V382H46.9165V0Z" fill="white"/>
</mask>
<g mask="url(#mask0_8630_2088)">
<path d="M428.87 190.912C428.87 194.037 428.797 197.162 428.641 200.281C428.49 203.401 428.261 206.516 427.953 209.625C427.646 212.734 427.266 215.833 426.807 218.922C426.349 222.011 425.813 225.089 425.203 228.151C424.594 231.219 423.912 234.266 423.151 237.297C422.391 240.323 421.557 243.333 420.651 246.323C419.745 249.313 418.766 252.281 417.714 255.219C416.662 258.162 415.537 261.078 414.344 263.964C413.146 266.849 411.88 269.703 410.547 272.526C409.209 275.349 407.802 278.141 406.334 280.896C404.86 283.651 403.318 286.37 401.714 289.047C400.11 291.729 398.438 294.365 396.703 296.964C394.964 299.563 393.167 302.115 391.307 304.625C389.448 307.136 387.526 309.594 385.542 312.011C383.563 314.427 381.521 316.792 379.422 319.104C377.323 321.417 375.172 323.682 372.964 325.891C370.755 328.099 368.49 330.25 366.177 332.349C363.865 334.448 361.495 336.49 359.084 338.469C356.667 340.453 354.203 342.375 351.698 344.234C349.188 346.094 346.636 347.891 344.037 349.63C341.438 351.365 338.802 353.037 336.12 354.641C333.443 356.245 330.724 357.787 327.969 359.261C325.214 360.734 322.422 362.136 319.599 363.474C316.776 364.807 313.922 366.073 311.037 367.271C308.146 368.464 305.235 369.589 302.292 370.641C299.354 371.693 296.386 372.672 293.396 373.578C290.406 374.484 287.396 375.318 284.37 376.078C281.339 376.839 278.292 377.521 275.224 378.13C272.162 378.74 269.084 379.276 265.995 379.734C262.906 380.193 259.807 380.573 256.698 380.88C253.589 381.188 250.474 381.417 247.354 381.568C244.235 381.724 241.11 381.797 237.985 381.797C234.86 381.797 231.74 381.724 228.62 381.568C225.5 381.417 222.386 381.188 219.276 380.88C216.167 380.573 213.068 380.193 209.979 379.734C206.886 379.276 203.807 378.74 200.745 378.13C197.682 377.521 194.636 376.839 191.604 376.078C188.573 375.318 185.563 374.484 182.573 373.578C179.583 372.672 176.62 371.693 173.677 370.641C170.735 369.589 167.823 368.464 164.938 367.271C162.052 366.073 159.198 364.807 156.37 363.474C153.547 362.136 150.761 360.734 148.005 359.261C145.25 357.787 142.531 356.245 139.849 354.641C137.172 353.037 134.531 351.365 131.938 349.63C129.339 347.891 126.787 346.094 124.276 344.234C121.766 342.375 119.302 340.453 116.891 338.469C114.474 336.49 112.11 334.448 109.797 332.349C107.479 330.25 105.219 328.099 103.011 325.891C100.802 323.682 98.646 321.417 96.547 319.104C94.4533 316.792 92.4116 314.427 90.4272 312.011C88.4481 309.594 86.5262 307.136 84.6668 304.625C82.8022 302.115 81.0054 299.563 79.271 296.964C77.5366 294.365 75.8647 291.729 74.2554 289.047C72.6512 286.37 71.1147 283.651 69.6408 280.896C68.1668 278.141 66.7606 275.349 65.4272 272.526C64.0939 269.703 62.8283 266.849 61.6304 263.964C60.4325 261.078 59.3127 258.162 58.2606 255.219C57.2085 252.281 56.2241 249.313 55.3179 246.323C54.4116 243.333 53.5783 240.323 52.8231 237.297C52.0627 234.266 51.3752 231.219 50.7658 228.151C50.1564 225.089 49.6252 222.011 49.1668 218.922C48.7085 215.833 48.3231 212.734 48.021 209.625C47.7137 206.516 47.4845 203.401 47.3283 200.281C47.1772 197.162 47.0991 194.037 47.0991 190.912C47.0991 187.792 47.1772 184.667 47.3283 181.547C47.4845 178.427 47.7137 175.313 48.021 172.203C48.3231 169.094 48.7085 165.995 49.1668 162.906C49.6252 159.813 50.1564 156.74 50.7658 153.672C51.3752 150.609 52.0627 147.563 52.8231 144.531C53.5783 141.5 54.4116 138.49 55.3179 135.5C56.2241 132.511 57.2085 129.547 58.2606 126.604C59.3127 123.667 60.4325 120.75 61.6304 117.865C62.8283 114.979 64.0939 112.125 65.4272 109.297C66.7606 106.474 68.1668 103.688 69.6408 100.932C71.1147 98.1772 72.6512 95.4584 74.2554 92.7761C75.8647 90.099 77.5366 87.4584 79.271 84.8647C81.0054 82.2657 82.8022 79.7136 84.6668 77.2032C86.5262 74.6928 88.4481 72.2293 90.4272 69.8178C92.4116 67.4011 94.4533 65.0365 96.547 62.724C98.646 60.4063 100.802 58.1459 103.011 55.9376C105.219 53.7292 107.479 51.573 109.797 49.474C112.11 47.3803 114.474 45.3386 116.891 43.3542C119.302 41.3751 121.766 39.4532 124.276 37.5938C126.787 35.7292 129.339 33.9324 131.938 32.198C134.531 30.4636 137.172 28.7917 139.849 27.1876C142.531 25.5782 145.25 24.0417 148.005 22.5678C150.761 21.0938 153.547 19.6928 156.37 18.3542C159.198 17.0209 162.052 15.7553 164.938 14.5574C167.823 13.3647 170.735 12.2397 173.677 11.1876C176.62 10.1355 179.583 9.15633 182.573 8.24487C185.563 7.33862 188.573 6.50529 191.604 5.75008C194.636 4.98966 197.682 4.30216 200.745 3.69279C203.807 3.08342 206.886 2.55216 209.979 2.09383C213.068 1.6355 216.167 1.25529 219.276 0.947998C222.386 0.640706 225.5 0.41154 228.62 0.25529C231.74 0.104248 234.86 0.026123 237.985 0.026123C241.11 0.026123 244.235 0.104248 247.354 0.25529C250.474 0.41154 253.589 0.640706 256.698 0.947998C259.807 1.25529 262.906 1.6355 265.995 2.09383C269.084 2.55216 272.162 3.08342 275.224 3.69279C278.292 4.30216 281.339 4.98966 284.37 5.75008C287.396 6.50529 290.406 7.33862 293.396 8.24487C296.386 9.15633 299.354 10.1355 302.292 11.1876C305.235 12.2397 308.146 13.3647 311.037 14.5574C313.922 15.7553 316.776 17.0209 319.599 18.3542C322.422 19.6928 325.214 21.0938 327.969 22.5678C330.724 24.0417 333.443 25.5782 336.12 27.1876C338.802 28.7917 341.438 30.4636 344.037 32.198C346.636 33.9324 349.188 35.7292 351.698 37.5938C354.203 39.4532 356.667 41.3751 359.084 43.3542C361.495 45.3386 363.865 47.3803 366.177 49.474C368.49 51.573 370.755 53.7292 372.964 55.9376C375.172 58.1459 377.323 60.4063 379.422 62.724C381.521 65.0365 383.563 67.4011 385.542 69.8178C387.526 72.2293 389.448 74.6928 391.307 77.2032C393.167 79.7136 394.964 82.2657 396.703 84.8647C398.438 87.4584 400.11 90.099 401.714 92.7761C403.318 95.4584 404.86 98.1772 406.334 100.932C407.802 103.688 409.209 106.474 410.547 109.297C411.88 112.125 413.146 114.979 414.344 117.865C415.537 120.75 416.662 123.667 417.714 126.604C418.766 129.547 419.745 132.511 420.651 135.5C421.557 138.49 422.391 141.5 423.151 144.531C423.912 147.563 424.594 150.609 425.203 153.672C425.813 156.74 426.349 159.813 426.807 162.906C427.266 165.995 427.646 169.094 427.953 172.203C428.261 175.313 428.49 178.427 428.641 181.547C428.797 184.667 428.87 187.792 428.87 190.912Z" fill="white"/>
<mask id="mask1_8630_2088" style="mask-type:luminance" maskUnits="userSpaceOnUse" x="-308" y="-311" width="1297" height="1297">
<path d="M988.25 -310.953H-307.75V985.047H988.25V-310.953Z" fill="black" fill-opacity="0.1"/>
</mask>
<g mask="url(#mask1_8630_2088)">
<mask id="mask2_8630_2088" style="mask-type:luminance" maskUnits="userSpaceOnUse" x="46" y="-1" width="384" height="384">
<path d="M429.583 -0.286377H46.9165V382.38H429.583V-0.286377Z" fill="white"/>
</mask>
<g mask="url(#mask2_8630_2088)">
<mask id="mask3_8630_2088" style="mask-type:luminance" maskUnits="userSpaceOnUse" x="46" y="0" width="384" height="383">
<path d="M46.9688 0.00012207H429.37V382H46.9688V0.00012207Z" fill="white"/>
</mask>
<g mask="url(#mask3_8630_2088)">
<path d="M428.87 190.912C428.87 194.037 428.797 197.162 428.641 200.281C428.49 203.401 428.261 206.516 427.953 209.625C427.646 212.734 427.266 215.833 426.807 218.922C426.349 222.011 425.813 225.089 425.203 228.151C424.594 231.219 423.912 234.266 423.151 237.297C422.391 240.323 421.557 243.333 420.651 246.323C419.745 249.313 418.766 252.281 417.714 255.219C416.662 258.162 415.537 261.078 414.344 263.964C413.146 266.849 411.88 269.703 410.547 272.526C409.209 275.349 407.802 278.141 406.334 280.896C404.86 283.651 403.318 286.37 401.714 289.047C400.11 291.729 398.438 294.365 396.703 296.964C394.964 299.563 393.167 302.115 391.307 304.625C389.448 307.13 387.526 309.594 385.542 312.011C383.563 314.427 381.521 316.792 379.422 319.104C377.323 321.417 375.172 323.682 372.964 325.891C370.755 328.099 368.49 330.25 366.177 332.349C363.865 334.448 361.495 336.49 359.084 338.469C356.667 340.453 354.203 342.375 351.698 344.234C349.188 346.094 346.636 347.891 344.037 349.63C341.438 351.365 338.802 353.037 336.12 354.641C333.443 356.245 330.724 357.787 327.969 359.261C325.214 360.734 322.422 362.136 319.599 363.474C316.776 364.807 313.922 366.073 311.037 367.271C308.146 368.464 305.235 369.589 302.292 370.641C299.354 371.693 296.386 372.672 293.396 373.578C290.406 374.484 287.396 375.318 284.37 376.078C281.339 376.839 278.292 377.521 275.224 378.13C272.162 378.74 269.084 379.276 265.995 379.734C262.906 380.193 259.807 380.573 256.698 380.88C253.589 381.188 250.474 381.417 247.354 381.568C244.235 381.724 241.11 381.797 237.985 381.797C234.86 381.797 231.74 381.724 228.62 381.568C225.5 381.417 222.386 381.188 219.276 380.88C216.167 380.573 213.068 380.193 209.979 379.734C206.886 379.276 203.807 378.74 200.745 378.13C197.682 377.521 194.636 376.839 191.604 376.078C188.573 375.318 185.563 374.484 182.573 373.578C179.583 372.672 176.62 371.693 173.677 370.641C170.735 369.589 167.823 368.464 164.938 367.271C162.052 366.073 159.198 364.807 156.37 363.474C153.547 362.136 150.761 360.734 148.005 359.261C145.25 357.787 142.531 356.245 139.849 354.641C137.172 353.037 134.531 351.365 131.938 349.63C129.339 347.891 126.787 346.094 124.276 344.234C121.766 342.375 119.302 340.453 116.891 338.469C114.474 336.49 112.11 334.448 109.797 332.349C107.479 330.25 105.219 328.099 103.011 325.891C100.802 323.682 98.646 321.417 96.547 319.104C94.4533 316.792 92.4116 314.427 90.4272 312.011C88.4481 309.594 86.5262 307.13 84.6668 304.625C82.8022 302.115 81.0054 299.563 79.271 296.964C77.5366 294.365 75.8647 291.729 74.2554 289.047C72.6512 286.37 71.1147 283.651 69.6408 280.896C68.1668 278.141 66.7606 275.349 65.4272 272.526C64.0939 269.703 62.8283 266.849 61.6304 263.964C60.4325 261.078 59.3127 258.162 58.2606 255.219C57.2085 252.281 56.2241 249.313 55.3179 246.323C54.4116 243.333 53.5783 240.323 52.8231 237.297C52.0627 234.266 51.3752 231.219 50.7658 228.151C50.1564 225.089 49.6252 222.011 49.1668 218.922C48.7085 215.833 48.3231 212.734 48.021 209.625C47.7137 206.516 47.4845 203.401 47.3283 200.281C47.1772 197.162 47.0991 194.037 47.0991 190.912C47.0991 187.792 47.1772 184.667 47.3283 181.547C47.4845 178.427 47.7137 175.313 48.021 172.203C48.3231 169.094 48.7085 165.995 49.1668 162.906C49.6252 159.813 50.1564 156.74 50.7658 153.672C51.3752 150.609 52.0627 147.563 52.8231 144.531C53.5783 141.5 54.4116 138.49 55.3179 135.5C56.2241 132.511 57.2085 129.547 58.2606 126.604C59.3127 123.667 60.4325 120.75 61.6304 117.865C62.8283 114.979 64.0939 112.125 65.4272 109.297C66.7606 106.474 68.1668 103.688 69.6408 100.932C71.1147 98.1772 72.6512 95.4584 74.2554 92.7761C75.8647 90.099 77.5366 87.4584 79.271 84.8647C81.0054 82.2657 82.8022 79.7136 84.6668 77.2032C86.5262 74.6928 88.4481 72.2293 90.4272 69.8178C92.4116 67.4011 94.4533 65.0365 96.547 62.724C98.646 60.4063 100.802 58.1459 103.011 55.9376C105.219 53.7292 107.479 51.573 109.797 49.474C112.11 47.3803 114.474 45.3386 116.891 43.3542C119.302 41.3751 121.766 39.4532 124.276 37.5938C126.787 35.7292 129.339 33.9324 131.938 32.198C134.531 30.4636 137.172 28.7917 139.849 27.1876C142.531 25.5782 145.25 24.0417 148.005 22.5678C150.761 21.0938 153.547 19.6928 156.37 18.3542C159.198 17.0209 162.052 15.7553 164.938 14.5574C167.823 13.3647 170.735 12.2397 173.677 11.1876C176.62 10.1355 179.583 9.15633 182.573 8.24487C185.563 7.33862 188.573 6.50529 191.604 5.75008C194.636 4.98966 197.682 4.30216 200.745 3.69279C203.807 3.08342 206.886 2.55216 209.979 2.09383C213.068 1.6355 216.167 1.25529 219.276 0.947998C222.386 0.640706 225.5 0.41154 228.62 0.25529C231.74 0.104248 234.86 0.026123 237.985 0.026123C241.11 0.026123 244.235 0.104248 247.354 0.25529C250.474 0.41154 253.589 0.640706 256.698 0.947998C259.807 1.25529 262.906 1.6355 265.995 2.09383C269.084 2.55216 272.162 3.08342 275.224 3.69279C278.292 4.30216 281.339 4.98966 284.37 5.75008C287.396 6.50529 290.406 7.33862 293.396 8.24487C296.386 9.15633 299.354 10.1355 302.292 11.1876C305.235 12.2397 308.146 13.3647 311.037 14.5574C313.922 15.7553 316.776 17.0209 319.599 18.3542C322.422 19.6928 325.214 21.0938 327.969 22.5678C330.724 24.0417 333.443 25.5782 336.12 27.1876C338.802 28.7917 341.438 30.4636 344.037 32.198C346.636 33.9324 349.188 35.7292 351.698 37.5938C354.203 39.4532 356.667 41.3751 359.084 43.3542C361.495 45.3386 363.865 47.3803 366.177 49.474C368.49 51.573 370.755 53.7292 372.964 55.9376C375.172 58.1459 377.323 60.4063 379.422 62.724C381.521 65.0365 383.563 67.4011 385.542 69.8178C387.526 72.2293 389.448 74.6928 391.307 77.2032C393.167 79.7136 394.964 82.2657 396.703 84.8647C398.438 87.4584 400.11 90.099 401.714 92.7761C403.318 95.4584 404.86 98.1772 406.334 100.932C407.802 103.688 409.209 106.474 410.547 109.297C411.88 112.125 413.146 114.979 414.344 117.865C415.537 120.75 416.662 123.667 417.714 126.604C418.766 129.547 419.745 132.511 420.651 135.5C421.557 138.49 422.391 141.5 423.151 144.531C423.912 147.563 424.594 150.609 425.203 153.672C425.813 156.74 426.349 159.813 426.807 162.906C427.266 165.995 427.646 169.094 427.953 172.203C428.261 175.313 428.49 178.427 428.641 181.547C428.797 184.667 428.87 187.792 428.87 190.912Z" fill="#0A55B0"/>
</g>
</g>
</g>
</g>
<mask id="mask4_8630_2088" style="mask-type:luminance" maskUnits="userSpaceOnUse" x="22" y="130" width="93" height="128">
<path d="M22 130.38H114.917V257.047H22V130.38Z" fill="white"/>
</mask>
<g mask="url(#mask4_8630_2088)">
<path d="M113.927 255.75L22.6406 255.469L23.0156 131.458L86.1406 131.651L114.219 159.901L113.927 255.75Z" fill="white"/>
</g>
<mask id="mask5_8630_2088" style="mask-type:luminance" maskUnits="userSpaceOnUse" x="85" y="130" width="30" height="32">
<path d="M114.917 130.38H85.5835V161.047H114.917V130.38Z" fill="white"/>
</mask>
<g mask="url(#mask5_8630_2088)">
<mask id="mask6_8630_2088" style="mask-type:luminance" maskUnits="userSpaceOnUse" x="86" y="131" width="29" height="30">
<path d="M86.0107 131.125H114.813V160.568H86.0107V131.125Z" fill="white"/>
</mask>
<g mask="url(#mask6_8630_2088)">
<path d="M86.1408 131.651L86.0522 159.812L114.219 159.901L86.1408 131.651Z" fill="#0A55B0"/>
</g>
</g>
<mask id="mask7_8630_2088" style="mask-type:luminance" maskUnits="userSpaceOnUse" x="22" y="130" width="93" height="128">
<path d="M22 130.38H114.917V257.047H22V130.38Z" fill="white"/>
</mask>
<g mask="url(#mask7_8630_2088)">
<path d="M114.792 159.865C114.792 159.813 114.781 159.766 114.765 159.714C114.755 159.698 114.75 159.677 114.745 159.661C114.719 159.594 114.677 159.542 114.63 159.49L86.5519 131.24C86.4998 131.193 86.4425 131.151 86.38 131.125C86.3644 131.115 86.3436 131.109 86.328 131.104C86.2759 131.089 86.229 131.078 86.1769 131.073C86.1613 131.073 86.1509 131.068 86.1405 131.068L23.0155 130.875C22.8592 130.875 22.7186 130.932 22.604 131.047C22.4946 131.161 22.4373 131.297 22.4373 131.458L22.0571 255.469C22.0571 255.63 22.1144 255.766 22.229 255.88C22.3436 255.995 22.479 256.052 22.6405 256.052L113.927 256.328C114.083 256.328 114.224 256.271 114.333 256.156C114.448 256.047 114.505 255.906 114.505 255.75L114.797 159.901C114.802 159.891 114.792 159.875 114.792 159.865ZM86.7134 133.057L99.6821 146.094L112.818 159.313L86.6353 159.234L86.7134 133.057ZM23.2238 254.891L23.5936 132.042L85.5519 132.229L85.4686 159.813C85.4686 159.974 85.5259 160.109 85.6405 160.224C85.755 160.339 85.8905 160.396 86.0519 160.396L113.635 160.479L113.349 255.161L23.2238 254.891Z" fill="#262626"/>
</g>
<path d="M300.031 250.786L175.547 250.406L176.057 81.2969L262.135 81.5573L300.427 120.078L300.031 250.786Z" fill="white"/>
<path d="M301 120.047C301 119.995 300.989 119.943 300.974 119.896C300.963 119.875 300.958 119.859 300.953 119.839C300.927 119.776 300.885 119.719 300.838 119.667L262.547 81.1459C262.5 81.0938 262.443 81.0573 262.38 81.0261C262.359 81.0209 262.344 81.0157 262.323 81.0105C262.276 80.9948 262.224 80.9844 262.172 80.9792C262.161 80.9792 262.151 80.974 262.135 80.974L176.057 80.7084C175.901 80.7084 175.76 80.7657 175.646 80.8802C175.536 80.9948 175.479 81.1302 175.479 81.2917L174.963 250.406C174.963 250.563 175.021 250.703 175.135 250.813C175.25 250.927 175.385 250.984 175.547 250.984L300.031 251.365C300.193 251.365 300.328 251.307 300.443 251.193C300.557 251.078 300.609 250.943 300.614 250.781L301.01 120.078C301.01 120.068 301 120.057 301 120.047ZM262.713 82.9636L299.026 119.495L262.604 119.385L262.713 82.9636ZM176.13 249.828L176.635 81.8802L261.552 82.1355L261.437 119.964C261.437 120.125 261.495 120.26 261.609 120.375C261.719 120.484 261.859 120.542 262.015 120.542L299.844 120.662L299.453 250.203L176.13 249.828Z" fill="#262626"/>
<path d="M453.042 255.75L361.755 255.469L362.13 131.458L425.25 131.651L453.333 159.901L453.042 255.75Z" fill="white"/>
<mask id="mask8_8630_2088" style="mask-type:luminance" maskUnits="userSpaceOnUse" x="424" y="130" width="30" height="32">
<path d="M424.25 130.38H454V161.047H424.25V130.38Z" fill="white"/>
</mask>
<g mask="url(#mask8_8630_2088)">
<mask id="mask9_8630_2088" style="mask-type:luminance" maskUnits="userSpaceOnUse" x="-308" y="-311" width="1297" height="1297">
<path d="M988.25 -310.953H-307.75V985.047H988.25V-310.953Z" fill="black" fill-opacity="0.3"/>
</mask>
<g mask="url(#mask9_8630_2088)">
<mask id="mask10_8630_2088" style="mask-type:luminance" maskUnits="userSpaceOnUse" x="424" y="130" width="31" height="32">
<path d="M454.917 130.38H424.25V161.047H454.917V130.38Z" fill="white"/>
</mask>
<g mask="url(#mask10_8630_2088)">
<mask id="mask11_8630_2088" style="mask-type:luminance" maskUnits="userSpaceOnUse" x="424" y="131" width="30" height="30">
<path d="M424.891 131.125H453.583V160.568H424.891V131.125Z" fill="white"/>
</mask>
<g mask="url(#mask11_8630_2088)">
<path d="M425.25 131.651L425.167 159.812L453.333 159.901L425.25 131.651Z" fill="#0A55B0"/>
</g>
</g>
</g>
</g>
<mask id="mask12_8630_2088" style="mask-type:luminance" maskUnits="userSpaceOnUse" x="360" y="130" width="94" height="128">
<path d="M360.25 130.38H454V257.047H360.25V130.38Z" fill="white"/>
</mask>
<g mask="url(#mask12_8630_2088)">
<path d="M453.906 159.865C453.901 159.813 453.891 159.766 453.875 159.714C453.87 159.698 453.865 159.677 453.854 159.661C453.828 159.594 453.792 159.542 453.745 159.49L425.667 131.24C425.615 131.193 425.557 131.151 425.495 131.125C425.479 131.115 425.458 131.109 425.438 131.104C425.391 131.089 425.339 131.078 425.292 131.073C425.276 131.073 425.266 131.068 425.255 131.068L362.13 130.875C361.969 130.875 361.833 130.932 361.719 131.047C361.604 131.156 361.547 131.297 361.547 131.453L361.172 255.469C361.172 255.63 361.229 255.766 361.344 255.88C361.458 255.995 361.594 256.052 361.755 256.052L453.042 256.328C453.203 256.328 453.339 256.271 453.453 256.156C453.568 256.042 453.625 255.906 453.625 255.745L453.917 159.896C453.911 159.891 453.906 159.875 453.906 159.865ZM425.828 133.057L438.792 146.094L451.927 159.313L425.75 159.234L425.828 133.057ZM362.339 254.891L362.708 132.042L424.672 132.229L424.583 159.813C424.583 159.974 424.641 160.109 424.755 160.224C424.87 160.339 425.005 160.396 425.167 160.396L452.75 160.479L452.464 255.161L362.339 254.891Z" fill="#262626"/>
</g>
<path d="M215.61 171.13C215.61 171.703 215.552 172.271 215.438 172.833C215.328 173.396 215.162 173.937 214.943 174.469C214.724 174.995 214.458 175.5 214.141 175.974C213.823 176.448 213.458 176.89 213.057 177.297C212.651 177.698 212.208 178.062 211.735 178.38C211.261 178.698 210.755 178.963 210.229 179.182C209.698 179.401 209.156 179.568 208.594 179.677C208.031 179.792 207.464 179.849 206.891 179.849C206.323 179.849 205.755 179.792 205.193 179.677C204.63 179.568 204.089 179.401 203.557 179.182C203.031 178.963 202.526 178.698 202.052 178.38C201.573 178.062 201.136 177.698 200.729 177.297C200.328 176.89 199.964 176.448 199.646 175.974C199.328 175.5 199.063 174.995 198.844 174.469C198.625 173.937 198.458 173.396 198.344 172.833C198.235 172.271 198.177 171.703 198.177 171.13C198.177 170.562 198.235 169.995 198.344 169.432C198.458 168.87 198.625 168.328 198.844 167.797C199.063 167.271 199.328 166.765 199.646 166.292C199.964 165.812 200.328 165.375 200.729 164.969C201.136 164.568 201.573 164.203 202.052 163.885C202.526 163.568 203.031 163.302 203.557 163.083C204.089 162.864 204.63 162.698 205.193 162.583C205.755 162.474 206.323 162.417 206.891 162.417C207.464 162.417 208.031 162.474 208.594 162.583C209.156 162.698 209.698 162.864 210.229 163.083C210.755 163.302 211.261 163.568 211.735 163.885C212.208 164.203 212.651 164.568 213.057 164.969C213.458 165.375 213.823 165.812 214.141 166.292C214.458 166.765 214.724 167.271 214.943 167.797C215.162 168.328 215.328 168.87 215.438 169.432C215.552 169.995 215.61 170.562 215.61 171.13Z" fill="#292A2E"/>
<path d="M275.359 171.13C275.359 171.703 275.307 172.271 275.193 172.833C275.083 173.396 274.917 173.937 274.698 174.469C274.479 174.995 274.213 175.5 273.89 175.974C273.573 176.448 273.213 176.89 272.807 177.297C272.406 177.698 271.963 178.062 271.489 178.38C271.01 178.698 270.51 178.963 269.984 179.182C269.453 179.401 268.906 179.568 268.349 179.677C267.786 179.792 267.219 179.849 266.646 179.849C266.073 179.849 265.51 179.792 264.948 179.677C264.385 179.568 263.838 179.401 263.312 179.182C262.781 178.963 262.281 178.698 261.807 178.38C261.328 178.062 260.89 177.698 260.484 177.297C260.078 176.89 259.719 176.448 259.401 175.974C259.083 175.5 258.818 174.995 258.594 174.469C258.375 173.937 258.213 173.396 258.099 172.833C257.989 172.271 257.932 171.703 257.932 171.13C257.932 170.562 257.989 169.995 258.099 169.432C258.213 168.87 258.375 168.328 258.594 167.797C258.818 167.271 259.083 166.765 259.401 166.292C259.719 165.812 260.078 165.375 260.484 164.969C260.89 164.568 261.328 164.203 261.807 163.885C262.281 163.568 262.781 163.302 263.312 163.083C263.838 162.864 264.385 162.698 264.948 162.583C265.51 162.474 266.073 162.417 266.646 162.417C267.219 162.417 267.786 162.474 268.349 162.583C268.906 162.698 269.453 162.864 269.984 163.083C270.51 163.302 271.01 163.568 271.489 163.885C271.963 164.203 272.406 164.568 272.807 164.969C273.213 165.375 273.573 165.812 273.89 166.292C274.213 166.765 274.479 167.271 274.698 167.797C274.917 168.328 275.083 168.87 275.193 169.432C275.307 169.995 275.359 170.562 275.359 171.13Z" fill="#292A2E"/>
<path d="M248.453 195.235H225.089C224.927 195.235 224.792 195.177 224.677 195.063C224.563 194.948 224.505 194.813 224.505 194.651C224.505 194.49 224.563 194.354 224.677 194.24C224.792 194.125 224.927 194.068 225.089 194.068H248.453C248.615 194.068 248.75 194.125 248.865 194.24C248.979 194.354 249.037 194.49 249.037 194.651C249.037 194.813 248.979 194.948 248.865 195.063C248.75 195.177 248.615 195.235 248.453 195.235Z" fill="#262626"/>
<path d="M205.677 191.969C205.677 192.24 205.625 192.505 205.526 192.766C205.427 193.031 205.281 193.286 205.083 193.536C204.891 193.781 204.651 194.016 204.365 194.24C204.083 194.464 203.761 194.672 203.401 194.859C203.042 195.052 202.646 195.219 202.224 195.37C201.797 195.521 201.349 195.646 200.88 195.75C200.406 195.849 199.922 195.927 199.422 195.979C198.917 196.031 198.412 196.057 197.901 196.063C197.391 196.057 196.886 196.031 196.386 195.979C195.886 195.927 195.401 195.849 194.927 195.75C194.458 195.646 194.011 195.521 193.583 195.37C193.162 195.219 192.766 195.052 192.406 194.859C192.047 194.672 191.724 194.464 191.438 194.24C191.156 194.016 190.917 193.781 190.719 193.536C190.526 193.286 190.38 193.031 190.281 192.766C190.177 192.505 190.13 192.24 190.13 191.969C190.13 191.698 190.177 191.432 190.281 191.172C190.38 190.906 190.526 190.651 190.719 190.401C190.917 190.156 191.156 189.917 191.438 189.693C191.724 189.474 192.047 189.266 192.406 189.073C192.766 188.885 193.162 188.714 193.583 188.568C194.011 188.417 194.458 188.292 194.927 188.188C195.401 188.083 195.886 188.01 196.386 187.953C196.886 187.901 197.391 187.875 197.901 187.875C198.412 187.875 198.917 187.901 199.422 187.953C199.922 188.01 200.406 188.083 200.88 188.188C201.349 188.292 201.797 188.417 202.224 188.568C202.646 188.714 203.042 188.885 203.401 189.073C203.761 189.266 204.083 189.474 204.365 189.693C204.651 189.917 204.891 190.156 205.083 190.401C205.281 190.651 205.427 190.906 205.526 191.172C205.625 191.432 205.677 191.698 205.677 191.969Z" fill="white"/>
<path d="M283.412 191.969C283.412 192.24 283.36 192.505 283.261 192.766C283.162 193.031 283.016 193.286 282.818 193.536C282.625 193.781 282.386 194.016 282.099 194.24C281.818 194.464 281.495 194.672 281.136 194.859C280.771 195.052 280.38 195.219 279.953 195.37C279.531 195.521 279.083 195.646 278.61 195.75C278.141 195.849 277.656 195.927 277.151 195.979C276.651 196.031 276.146 196.057 275.636 196.063C275.125 196.057 274.62 196.031 274.12 195.979C273.62 195.927 273.136 195.849 272.662 195.75C272.193 195.646 271.745 195.521 271.318 195.37C270.896 195.219 270.5 195.052 270.141 194.859C269.781 194.672 269.458 194.464 269.172 194.24C268.891 194.016 268.651 193.781 268.453 193.536C268.261 193.286 268.11 193.031 268.011 192.766C267.912 192.505 267.865 192.24 267.865 191.969C267.865 191.698 267.912 191.432 268.011 191.172C268.11 190.906 268.261 190.651 268.453 190.401C268.651 190.156 268.891 189.917 269.172 189.693C269.458 189.474 269.781 189.266 270.141 189.073C270.5 188.885 270.896 188.714 271.318 188.568C271.745 188.417 272.193 188.292 272.662 188.188C273.136 188.083 273.62 188.01 274.12 187.953C274.62 187.901 275.125 187.875 275.636 187.875C276.146 187.875 276.651 187.901 277.151 187.953C277.656 188.01 278.141 188.083 278.61 188.188C279.083 188.292 279.531 188.417 279.953 188.568C280.38 188.714 280.771 188.885 281.136 189.073C281.495 189.266 281.818 189.474 282.099 189.693C282.386 189.917 282.625 190.156 282.818 190.401C283.016 190.651 283.162 190.906 283.261 191.172C283.36 191.432 283.412 191.698 283.412 191.969Z" fill="white"/>
<mask id="mask13_8630_2088" style="mask-type:luminance" maskUnits="userSpaceOnUse" x="189" y="187" width="96" height="11">
<path d="M284.25 187.714H189.583V197.047H284.25V187.714Z" fill="white"/>
</mask>
<g mask="url(#mask13_8630_2088)">
<mask id="mask14_8630_2088" style="mask-type:luminance" maskUnits="userSpaceOnUse" x="190" y="187" width="17" height="10">
<path d="M190.011 187.766H206.917V196.729H190.011V187.766Z" fill="white"/>
</mask>
<g mask="url(#mask14_8630_2088)">
<path d="M205.677 191.969C205.677 192.24 205.625 192.505 205.526 192.766C205.427 193.031 205.281 193.286 205.083 193.536C204.891 193.781 204.651 194.016 204.365 194.24C204.083 194.464 203.761 194.672 203.401 194.859C203.042 195.052 202.646 195.219 202.224 195.37C201.797 195.521 201.349 195.646 200.88 195.75C200.406 195.849 199.922 195.927 199.422 195.979C198.917 196.031 198.412 196.057 197.901 196.063C197.391 196.057 196.886 196.031 196.386 195.979C195.886 195.927 195.401 195.849 194.927 195.75C194.458 195.646 194.011 195.521 193.583 195.37C193.162 195.219 192.766 195.052 192.406 194.859C192.047 194.672 191.724 194.464 191.438 194.24C191.156 194.016 190.917 193.781 190.719 193.536C190.526 193.286 190.38 193.031 190.281 192.766C190.177 192.505 190.13 192.24 190.13 191.969C190.13 191.698 190.177 191.432 190.281 191.172C190.38 190.906 190.526 190.651 190.719 190.401C190.917 190.156 191.156 189.917 191.438 189.693C191.724 189.474 192.047 189.266 192.406 189.073C192.766 188.885 193.162 188.714 193.583 188.568C194.011 188.417 194.458 188.292 194.927 188.187C195.401 188.083 195.886 188.01 196.386 187.953C196.886 187.901 197.391 187.875 197.901 187.875C198.412 187.875 198.917 187.901 199.422 187.953C199.922 188.01 200.406 188.083 200.88 188.187C201.349 188.292 201.797 188.417 202.224 188.568C202.646 188.714 203.042 188.885 203.401 189.073C203.761 189.266 204.083 189.474 204.365 189.693C204.651 189.917 204.891 190.156 205.083 190.401C205.281 190.651 205.427 190.906 205.526 191.172C205.625 191.432 205.677 191.698 205.677 191.969Z" fill="#0A55B0"/>
</g>
<mask id="mask15_8630_2088" style="mask-type:luminance" maskUnits="userSpaceOnUse" x="266" y="187" width="18" height="10">
<path d="M266.917 187.766H283.771V196.729H266.917V187.766Z" fill="white"/>
</mask>
<g mask="url(#mask15_8630_2088)">
<path d="M283.412 191.969C283.412 192.24 283.36 192.505 283.261 192.766C283.162 193.031 283.016 193.286 282.818 193.536C282.625 193.781 282.386 194.016 282.099 194.24C281.818 194.464 281.495 194.672 281.136 194.859C280.771 195.052 280.38 195.219 279.953 195.37C279.531 195.521 279.083 195.646 278.61 195.75C278.141 195.849 277.656 195.927 277.151 195.979C276.651 196.031 276.146 196.057 275.636 196.063C275.125 196.057 274.62 196.031 274.12 195.979C273.62 195.927 273.136 195.849 272.662 195.75C272.193 195.646 271.745 195.521 271.318 195.37C270.896 195.219 270.5 195.052 270.141 194.859C269.781 194.672 269.458 194.464 269.172 194.24C268.891 194.016 268.651 193.781 268.453 193.536C268.261 193.286 268.11 193.031 268.011 192.766C267.912 192.505 267.865 192.24 267.865 191.969C267.865 191.698 267.912 191.432 268.011 191.172C268.11 190.906 268.261 190.651 268.453 190.401C268.651 190.156 268.891 189.917 269.172 189.693C269.458 189.474 269.781 189.266 270.141 189.073C270.5 188.885 270.896 188.714 271.318 188.568C271.745 188.417 272.193 188.292 272.662 188.187C273.136 188.083 273.62 188.01 274.12 187.953C274.62 187.901 275.125 187.875 275.636 187.875C276.146 187.875 276.651 187.901 277.151 187.953C277.656 188.01 278.141 188.083 278.61 188.187C279.083 188.292 279.531 188.417 279.953 188.568C280.38 188.714 280.771 188.885 281.136 189.073C281.495 189.266 281.818 189.474 282.099 189.693C282.386 189.917 282.625 190.156 282.818 190.401C283.016 190.651 283.162 190.906 283.261 191.172C283.36 191.432 283.412 191.698 283.412 191.969Z" fill="#0A55B0"/>
</g>
</g>
<path d="M300.615 121.469C299.698 120.417 298.755 119.385 297.792 118.38C296.823 117.375 295.834 116.396 294.823 115.438C293.808 114.484 292.771 113.552 291.709 112.646C290.651 111.74 289.568 110.859 288.464 110.01C287.36 109.156 286.24 108.333 285.094 107.536C283.953 106.74 282.787 105.969 281.61 105.229C280.427 104.49 279.229 103.776 278.011 103.094C276.797 102.417 275.563 101.766 274.313 101.141C273.068 100.521 271.802 99.9323 270.526 99.375C269.25 98.8125 267.959 98.2865 266.656 97.7917C265.354 97.2969 264.037 96.8333 262.714 96.4011C261.386 95.9688 260.052 95.5729 258.703 95.2083C257.36 94.8438 256.005 94.5104 254.646 94.2083C253.281 93.9115 251.917 93.6458 250.542 93.4167C249.167 93.1823 247.787 92.9844 246.401 92.8229C245.016 92.6563 243.63 92.5261 242.24 92.4323C240.849 92.3333 239.453 92.2708 238.063 92.2448C236.667 92.2188 235.276 92.224 233.88 92.2656C232.49 92.3073 231.094 92.3802 229.709 92.4896C228.318 92.599 226.927 92.7396 225.547 92.9167C224.167 93.099 222.787 93.3073 221.412 93.5521C220.042 93.7969 218.677 94.0729 217.318 94.3854C215.959 94.6979 214.61 95.0417 213.266 95.4219C211.927 95.8021 210.594 96.2136 209.271 96.6563C207.948 97.099 206.641 97.5729 205.339 98.0833C204.042 98.5885 202.755 99.1302 201.485 99.6979C200.214 100.271 198.959 100.875 197.714 101.505C196.474 102.141 195.245 102.802 194.037 103.495C192.828 104.188 191.636 104.906 190.459 105.661C189.287 106.411 188.13 107.193 186.995 108C185.86 108.807 184.745 109.641 183.651 110.505C182.552 111.37 181.479 112.255 180.427 113.172C151.964 137.964 143.219 179.177 159.162 213.411C162.38 220.302 166.448 226.646 171.37 232.443L172.417 233.682L94.3908 316.484C94.0367 316.865 93.7242 317.276 93.4533 317.719C93.1825 318.156 92.9533 318.625 92.771 319.109C92.5888 319.594 92.4585 320.094 92.3752 320.609C92.2919 321.12 92.2554 321.635 92.2763 322.156C92.2919 322.672 92.3596 323.182 92.4742 323.693C92.594 324.198 92.7606 324.688 92.9742 325.156C93.1877 325.63 93.4429 326.078 93.745 326.5C94.0471 326.927 94.3856 327.313 94.7658 327.672C95.1408 328.026 95.5523 328.344 95.9898 328.62C96.4325 328.896 96.896 329.125 97.3804 329.307C97.8648 329.495 98.3648 329.63 98.8752 329.719C99.3856 329.807 99.9013 329.844 100.422 329.828C100.938 329.818 101.453 329.75 101.959 329.635C102.464 329.521 102.953 329.359 103.433 329.151C103.906 328.943 104.354 328.688 104.781 328.385C105.203 328.089 105.594 327.75 105.953 327.375L183.959 244.589L185.261 245.563C187.344 247.125 189.49 248.589 191.709 249.953C193.922 251.318 196.198 252.578 198.531 253.734C200.86 254.891 203.24 255.938 205.667 256.875C208.094 257.813 210.563 258.641 213.063 259.354C215.568 260.063 218.099 260.661 220.656 261.141C223.214 261.62 225.787 261.984 228.38 262.229C230.969 262.474 233.568 262.599 236.172 262.604C238.771 262.609 241.37 262.495 243.964 262.266C246.558 262.031 249.13 261.682 251.693 261.214C254.25 260.75 256.787 260.161 259.292 259.464C261.797 258.766 264.271 257.948 266.698 257.026C269.13 256.099 271.516 255.063 273.854 253.917C276.193 252.771 278.474 251.521 280.693 250.167C282.917 248.813 285.073 247.359 287.162 245.813C289.25 244.26 291.266 242.615 293.203 240.88C295.146 239.141 297 237.323 298.771 235.417C300.542 233.51 302.224 231.526 303.813 229.464C305.406 227.406 306.896 225.276 308.292 223.078C309.688 220.88 310.979 218.625 312.167 216.313C313.354 213.995 314.438 211.63 315.406 209.214C316.38 206.802 317.24 204.349 317.985 201.854C318.729 199.359 319.365 196.839 319.88 194.286C320.391 191.734 320.792 189.167 321.073 186.578C321.349 183.99 321.511 181.396 321.552 178.797C321.594 176.193 321.521 173.594 321.323 171C321.125 168.401 320.813 165.823 320.38 163.255C319.948 160.688 319.396 158.146 318.735 155.63C318.068 153.115 317.287 150.635 316.396 148.193C315.5 145.745 314.5 143.349 313.386 140.995C312.276 138.641 311.058 136.344 309.735 134.104C308.412 131.865 306.985 129.688 305.464 127.578C303.943 125.464 302.323 123.427 300.615 121.469ZM305.505 182.182C305.354 184.344 305.104 186.495 304.755 188.635C304.401 190.776 303.953 192.891 303.401 194.99C302.854 197.089 302.209 199.151 301.464 201.188C300.719 203.224 299.88 205.224 298.948 207.182C298.021 209.135 297 211.047 295.886 212.911C294.776 214.771 293.584 216.578 292.302 218.328C291.021 220.078 289.662 221.76 288.224 223.385C286.787 225.005 285.276 226.557 283.693 228.036C282.11 229.516 280.459 230.922 278.745 232.245C277.031 233.573 275.255 234.813 273.427 235.974C271.594 237.135 269.714 238.203 267.781 239.188C265.849 240.167 263.875 241.057 261.86 241.854C259.844 242.656 257.792 243.354 255.714 243.958C253.63 244.568 251.526 245.073 249.396 245.479C247.266 245.885 245.125 246.193 242.964 246.401C240.808 246.609 238.646 246.714 236.474 246.714C234.86 246.714 233.235 246.656 231.604 246.542C230.188 246.443 228.776 246.307 227.37 246.125C225.959 245.938 224.558 245.714 223.167 245.443C221.771 245.177 220.386 244.865 219.016 244.51C217.641 244.156 216.276 243.76 214.927 243.323C213.578 242.885 212.24 242.406 210.922 241.891C209.599 241.37 208.297 240.807 207.011 240.208C205.724 239.609 204.453 238.974 203.209 238.297C201.959 237.615 200.735 236.901 199.531 236.151C198.328 235.396 197.151 234.609 195.995 233.781C194.839 232.958 193.714 232.099 192.61 231.203C191.505 230.307 190.433 229.38 189.391 228.422C188.344 227.464 187.328 226.469 186.344 225.448C185.36 224.422 184.406 223.375 183.49 222.292C182.568 221.208 181.683 220.104 180.834 218.969C179.979 217.833 179.167 216.672 178.386 215.484C177.604 214.297 176.86 213.089 176.156 211.859C175.448 210.63 174.781 209.375 174.151 208.104C173.521 206.833 172.933 205.542 172.38 204.234C171.834 202.927 171.323 201.599 170.854 200.26C170.386 198.922 169.959 197.568 169.573 196.203C169.188 194.839 168.844 193.458 168.542 192.073C168.24 190.688 167.985 189.292 167.771 187.885C167.552 186.484 167.38 185.078 167.25 183.661C167.125 182.25 167.037 180.833 166.995 179.417C166.953 177.995 166.953 176.578 167 175.161C167.047 173.74 167.136 172.323 167.266 170.911C167.401 169.5 167.573 168.089 167.792 166.688C168.011 165.286 168.271 163.891 168.578 162.505C168.88 161.12 169.229 159.745 169.615 158.38C170.005 157.01 170.438 155.661 170.906 154.323C171.38 152.984 171.891 151.661 172.443 150.354C173 149.047 173.589 147.755 174.224 146.484C174.854 145.214 175.526 143.964 176.235 142.734C176.943 141.505 177.688 140.302 178.474 139.115C179.255 137.932 180.073 136.771 180.927 135.641C181.781 134.505 182.672 133.401 183.594 132.323C184.516 131.245 185.469 130.193 186.459 129.172C187.443 128.151 188.459 127.161 189.505 126.203C190.552 125.245 191.63 124.323 192.735 123.432C193.839 122.536 194.969 121.682 196.125 120.859C197.281 120.036 198.464 119.25 199.667 118.5C200.875 117.75 202.099 117.036 203.349 116.365C204.599 115.688 205.865 115.052 207.156 114.458C208.443 113.859 209.745 113.302 211.068 112.786C212.391 112.271 213.729 111.797 215.078 111.359C216.433 110.927 217.792 110.536 219.167 110.182C220.547 109.833 221.927 109.526 223.323 109.26C224.719 108.995 226.12 108.771 227.526 108.594C228.933 108.411 230.349 108.276 231.766 108.182C233.177 108.089 234.599 108.042 236.016 108.036C237.438 108.031 238.854 108.068 240.271 108.146C241.688 108.229 243.099 108.354 244.511 108.521C245.922 108.693 247.323 108.901 248.719 109.156C250.115 109.411 251.505 109.708 252.88 110.047C254.261 110.385 255.625 110.766 256.979 111.193C258.334 111.615 259.677 112.078 261 112.583C262.328 113.089 263.636 113.635 264.933 114.224C266.224 114.807 267.495 115.432 268.75 116.099C270.005 116.76 271.24 117.464 272.448 118.203C273.662 118.943 274.849 119.719 276.011 120.536C277.172 121.349 278.313 122.193 279.422 123.078C280.537 123.958 281.62 124.875 282.672 125.828C283.729 126.776 284.755 127.755 285.75 128.771C286.745 129.781 287.703 130.823 288.636 131.896C291.636 135.318 294.266 139.005 296.531 142.953C298.797 146.901 300.656 151.036 302.104 155.349C303.552 159.667 304.563 164.083 305.136 168.599C305.709 173.115 305.828 177.641 305.505 182.182Z" fill="#0A55B0"/>
<path d="M8.48114 410.132C7.04812 410.132 5.79422 409.887 4.72312 409.401C3.64835 408.915 2.76734 408.253 2.07642 407.412C1.38184 406.564 0.862736 405.595 0.511793 404.502C0.16816 403.413 0 402.261 0 401.051C0 399.845 0.16816 398.694 0.511793 397.6C0.862736 396.511 1.38184 395.546 2.07642 394.705C2.76734 393.857 3.64835 393.195 4.72312 392.717C5.79422 392.241 7.04812 392 8.48114 392C9.93243 392 11.1936 392.241 12.2684 392.717C13.3395 393.195 14.2205 393.857 14.9151 394.705C15.606 395.546 16.1215 396.511 16.4651 397.6C16.816 398.694 16.9915 399.845 16.9915 401.051C16.9915 402.261 16.816 403.413 16.4651 404.502C16.1215 405.595 15.606 406.564 14.9151 407.412C14.2205 408.253 13.3395 408.915 12.2684 409.401C11.1936 409.887 9.93243 410.132 8.48114 410.132ZM8.48114 407.178C9.57052 407.178 10.4881 406.926 11.2302 406.418C11.9796 405.902 12.5535 405.182 12.9557 404.254C13.3541 403.329 13.5552 402.261 13.5552 401.051C13.5552 399.845 13.3541 398.785 12.9557 397.878C12.5535 396.972 11.9796 396.266 11.2302 395.758C10.4881 395.243 9.57052 394.983 8.48114 394.983C7.4283 394.983 6.5217 395.243 5.76132 395.758C5.00826 396.266 4.43432 396.972 4.03585 397.878C3.63373 398.785 3.43632 399.845 3.43632 401.051C3.43632 402.261 3.63373 403.329 4.03585 404.254C4.43432 405.182 5.00826 405.902 5.76132 406.418C6.5217 406.926 7.4283 407.178 8.48114 407.178Z" fill="#0A55B0"/>
<path d="M26.846 410.059C24.8573 410.059 23.5193 409.35 22.8394 407.924C22.6346 407.507 22.4884 407.039 22.4007 406.52C22.3202 406.005 22.2837 405.285 22.2837 404.356V396.942H25.3837V404.371C25.3837 405.036 25.4312 405.57 25.5299 405.979C25.625 406.381 25.7822 406.703 25.9978 406.944C26.3671 407.324 26.9081 407.515 27.621 407.515C28.5056 407.515 29.1636 407.259 29.595 406.74C29.8582 406.44 30.041 406.03 30.1507 405.511C30.2677 404.996 30.3261 404.32 30.3261 403.479V396.942H33.4261V409.81H30.3261V408.187C29.8582 408.842 29.3501 409.32 28.8054 409.62C28.257 409.913 27.6063 410.059 26.846 410.059Z" fill="#0A55B0"/>
<path d="M42.3818 409.81H39.2964V396.942H42.3818V398.478C42.8789 397.805 43.4236 397.337 44.0195 397.074C44.6227 396.811 45.299 396.679 46.052 396.679H46.4176V399.648H45.7157C45.1893 399.648 44.7397 399.721 44.3704 399.867C43.9976 400.006 43.6832 400.196 43.42 400.437C43.0763 400.77 42.8204 401.209 42.645 401.753C42.4695 402.302 42.3818 402.996 42.3818 403.844V409.81Z" fill="#0A55B0"/>
<path d="M65.6765 410.059C64.5652 410.059 63.5782 409.778 62.7228 409.211C61.8637 408.648 61.1947 407.862 60.7195 406.857C60.2515 405.844 60.0176 404.678 60.0176 403.362C60.0176 402.057 60.2515 400.902 60.7195 399.896C61.1947 398.884 61.8637 398.094 62.7228 397.527C63.5782 396.964 64.5652 396.679 65.6765 396.679C66.4369 396.679 67.1023 396.811 67.6798 397.074C68.2538 397.337 68.7985 397.842 69.3176 398.58V392.322H72.4176V409.81H69.3176V408.187C68.7985 408.9 68.2538 409.394 67.6798 409.664C67.1023 409.927 66.4369 410.059 65.6765 410.059ZM66.3931 407.398C67.3874 407.398 68.1843 407.029 68.7912 406.286C69.4053 405.537 69.7124 404.561 69.7124 403.362C69.7124 402.174 69.4053 401.205 68.7912 400.452C68.1843 399.703 67.3874 399.326 66.3931 399.326C65.406 399.326 64.6164 399.706 64.0242 400.467C63.4283 401.227 63.1322 402.192 63.1322 403.362C63.1322 404.532 63.4283 405.497 64.0242 406.257C64.6164 407.018 65.406 407.398 66.3931 407.398Z" fill="#0A55B0"/>
<path d="M82.0023 410.059C80.7923 410.059 79.7833 409.737 78.9754 409.094C78.1748 408.443 77.7764 407.507 77.7764 406.286C77.7764 405.595 77.908 405.01 78.1712 404.532C78.4417 404.045 78.8036 403.651 79.2533 403.347C79.6627 403.055 80.1306 402.828 80.657 402.66C81.1834 402.495 81.7135 402.36 82.2509 402.25L86.082 401.534C86.0528 400.737 85.8408 400.13 85.4533 399.721C85.0731 399.311 84.5028 399.107 83.7424 399.107C83.1575 399.107 82.6384 399.278 82.1924 399.618C81.7428 399.962 81.454 400.437 81.3297 401.051H78.2589C78.4125 400.05 78.7634 399.224 79.3117 398.58C79.8674 397.937 80.5327 397.462 81.315 397.147C82.1047 396.836 82.9162 396.679 83.757 396.679C84.5064 396.679 85.223 396.789 85.9066 397.001C86.5975 397.206 87.1824 397.535 87.6613 397.981C88.1658 398.419 88.5277 398.927 88.7434 399.501C88.9554 400.079 89.0797 400.678 89.1089 401.3C89.1455 401.914 89.1674 402.521 89.1674 403.113V409.81H86.082V408.07C85.7603 408.637 85.3692 409.065 84.9122 409.357C84.5101 409.613 84.0641 409.792 83.5669 409.898C83.0698 410.004 82.547 410.059 82.0023 410.059ZM82.7481 407.632C83.3622 407.632 83.9106 407.511 84.4004 407.266C85.0731 406.926 85.5264 406.473 85.7603 405.906C86.0016 405.343 86.1296 404.641 86.1405 403.8L83.0698 404.429C82.6311 404.499 82.2692 404.597 81.9877 404.722C81.7025 404.839 81.4686 404.985 81.2858 405.16C81.1688 405.277 81.0701 405.424 80.9933 405.599C80.9129 405.767 80.8764 405.957 80.8764 406.169C80.8764 406.637 81.0555 406.999 81.4174 407.251C81.7757 407.507 82.2217 407.632 82.7481 407.632Z" fill="#0A55B0"/>
<path d="M101.463 409.81H98.9191C97.9613 409.81 97.2228 409.591 96.6964 409.152C96.17 408.706 95.9068 407.983 95.9068 406.988V399.428H94.0059V396.943H95.9068V392.322H99.0068V396.943H101.478V399.428H99.0068V406.052C99.0068 406.385 99.058 406.667 99.1677 406.901C99.2846 407.127 99.5807 407.237 100.06 407.237H101.463V409.81Z" fill="#0A55B0"/>
<path d="M110.426 410.059C109.216 410.059 108.207 409.737 107.399 409.094C106.599 408.443 106.2 407.507 106.2 406.286C106.2 405.595 106.332 405.01 106.595 404.532C106.866 404.045 107.227 403.651 107.677 403.347C108.087 403.055 108.554 402.828 109.081 402.66C109.607 402.495 110.137 402.36 110.675 402.25L114.506 401.534C114.477 400.737 114.265 400.13 113.877 399.721C113.497 399.311 112.927 399.107 112.166 399.107C111.581 399.107 111.062 399.278 110.616 399.618C110.167 399.962 109.878 400.437 109.753 401.051H106.683C106.836 400.05 107.187 399.224 107.736 398.58C108.291 397.937 108.957 397.462 109.739 397.147C110.528 396.836 111.34 396.679 112.181 396.679C112.93 396.679 113.647 396.789 114.33 397.001C115.021 397.206 115.606 397.535 116.085 397.981C116.59 398.419 116.951 398.927 117.167 399.501C117.379 400.079 117.504 400.678 117.533 401.3C117.569 401.914 117.591 402.521 117.591 403.113V409.81H114.506V408.07C114.184 408.637 113.793 409.065 113.336 409.357C112.934 409.613 112.488 409.792 111.991 409.898C111.494 410.004 110.971 410.059 110.426 410.059ZM111.172 407.632C111.786 407.632 112.334 407.511 112.824 407.266C113.497 406.926 113.95 406.473 114.184 405.906C114.425 405.343 114.553 404.641 114.564 403.8L111.494 404.429C111.055 404.499 110.693 404.597 110.412 404.722C110.126 404.839 109.892 404.985 109.71 405.16C109.593 405.277 109.494 405.424 109.417 405.599C109.337 405.767 109.3 405.957 109.3 406.169C109.3 406.637 109.479 406.999 109.841 407.251C110.199 407.507 110.645 407.632 111.172 407.632Z" fill="#0A55B0"/>
<path d="M134.05 395.524C133.531 395.524 133.085 395.363 132.705 395.042C132.332 394.72 132.149 394.292 132.149 393.755C132.149 393.239 132.332 392.819 132.705 392.497C133.085 392.168 133.531 392 134.05 392C134.576 392 135.022 392.168 135.395 392.497C135.764 392.819 135.951 393.239 135.951 393.755C135.951 394.292 135.764 394.72 135.395 395.042C135.022 395.363 134.576 395.524 134.05 395.524ZM135.585 409.81H132.5V396.942H135.585V409.81Z" fill="#0A55B0"/>
<path d="M147.035 410.059C146.047 410.059 145.112 409.902 144.227 409.591C143.339 409.28 142.593 408.783 141.99 408.099C141.394 407.42 141.017 406.546 140.864 405.482H143.905C144.11 406.184 144.479 406.721 145.017 407.091C145.55 407.452 146.216 407.632 147.005 407.632C147.667 407.632 148.208 407.507 148.628 407.251C149.056 406.988 149.272 406.619 149.272 406.14C149.272 405.76 149.129 405.46 148.848 405.233C148.563 405.01 148.193 404.839 147.736 404.722C147.276 404.597 146.775 404.48 146.23 404.371C145.675 404.265 145.108 404.137 144.534 403.991C143.967 403.837 143.445 403.625 142.969 403.362C142.502 403.091 142.121 402.729 141.829 402.28C141.536 401.834 141.39 401.249 141.39 400.525C141.39 399.618 141.617 398.884 142.077 398.317C142.534 397.754 143.138 397.337 143.891 397.074C144.651 396.811 145.474 396.679 146.362 396.679C147.861 396.679 149.115 397.059 150.12 397.82C151.133 398.573 151.75 399.648 151.977 401.051H149.067C148.881 400.349 148.533 399.852 148.029 399.56C147.532 399.26 146.969 399.107 146.347 399.107C145.733 399.107 145.243 399.224 144.885 399.458C144.523 399.691 144.344 400.01 144.344 400.408C144.344 400.759 144.479 401.037 144.753 401.241C145.035 401.439 145.4 401.589 145.85 401.695C146.296 401.804 146.779 401.91 147.298 402.016C147.872 402.126 148.453 402.25 149.038 402.397C149.623 402.543 150.164 402.755 150.661 403.025C151.158 403.289 151.557 403.654 151.86 404.122C152.171 404.583 152.328 405.175 152.328 405.906C152.328 407.164 151.86 408.173 150.924 408.933C149.996 409.686 148.702 410.059 147.035 410.059Z" fill="#0A55B0"/>
<path d="M173.663 396.694C174.793 396.694 175.783 396.979 176.631 397.542C177.479 398.109 178.137 398.898 178.605 399.911C179.081 400.916 179.322 402.075 179.322 403.391C179.322 404.707 179.081 405.873 178.605 406.886C178.137 407.891 177.479 408.677 176.631 409.24C175.783 409.807 174.793 410.088 173.663 410.088C172.91 410.088 172.245 409.957 171.66 409.694C171.082 409.423 170.537 408.919 170.022 408.187V414.446H166.922V396.943H170.022V398.58C170.537 397.86 171.082 397.367 171.66 397.104C172.245 396.833 172.91 396.694 173.663 396.694ZM172.961 399.355C171.974 399.355 171.17 399.732 170.548 400.481C169.934 401.234 169.627 402.203 169.627 403.391C169.627 404.583 169.934 405.552 170.548 406.301C171.17 407.054 171.974 407.427 172.961 407.427C173.955 407.427 174.745 407.047 175.33 406.287C175.915 405.519 176.207 404.554 176.207 403.391C176.207 402.214 175.915 401.249 175.33 400.496C174.745 399.736 173.955 399.355 172.961 399.355Z" fill="#0A55B0"/>
<path d="M189.624 409.81H187.62C186.673 409.81 185.942 409.591 185.427 409.152C184.908 408.706 184.652 407.983 184.652 406.988V392.322H187.737V406.067C187.737 406.498 187.814 406.798 187.971 406.974C188.136 407.149 188.41 407.237 188.79 407.237H189.624V409.81Z" fill="#0A55B0"/>
<path d="M198.381 410.059C197.171 410.059 196.162 409.737 195.354 409.094C194.553 408.443 194.155 407.507 194.155 406.286C194.155 405.595 194.286 405.01 194.55 404.532C194.82 404.045 195.182 403.651 195.632 403.347C196.041 403.055 196.509 402.828 197.035 402.66C197.562 402.495 198.092 402.36 198.629 402.25L202.46 401.534C202.431 400.737 202.219 400.13 201.832 399.721C201.451 399.311 200.881 399.107 200.121 399.107C199.536 399.107 199.017 399.278 198.571 399.618C198.121 399.962 197.832 400.437 197.708 401.051H194.637C194.791 400.05 195.142 399.224 195.69 398.58C196.246 397.937 196.911 397.462 197.693 397.147C198.483 396.836 199.295 396.679 200.135 396.679C200.885 396.679 201.601 396.789 202.285 397.001C202.976 397.206 203.561 397.535 204.04 397.981C204.544 398.419 204.906 398.927 205.122 399.501C205.334 400.079 205.458 400.678 205.487 401.3C205.524 401.914 205.546 402.521 205.546 403.113V409.81H202.46V408.07C202.139 408.637 201.748 409.065 201.291 409.357C200.889 409.613 200.443 409.792 199.945 409.898C199.448 410.004 198.925 410.059 198.381 410.059ZM199.126 407.632C199.741 407.632 200.289 407.511 200.779 407.266C201.451 406.926 201.905 406.473 202.139 405.906C202.38 405.343 202.508 404.641 202.519 403.8L199.448 404.429C199.01 404.499 198.648 404.597 198.366 404.722C198.081 404.839 197.847 404.985 197.664 405.16C197.547 405.277 197.449 405.424 197.372 405.599C197.291 405.767 197.255 405.957 197.255 406.169C197.255 406.637 197.434 406.999 197.796 407.251C198.154 407.507 198.6 407.632 199.126 407.632Z" fill="#0A55B0"/>
<path d="M213.602 414.446H211.467V411.828H212.856C213.254 411.828 213.58 411.77 213.836 411.653C214.099 411.536 214.322 411.243 214.508 410.775L214.859 409.854L210.107 396.942H213.456L216.468 406.389L219.173 396.942H222.492L217.491 411.316C217.089 412.464 216.603 413.276 216.029 413.744C215.462 414.212 214.655 414.446 213.602 414.446Z" fill="#0A55B0"/>
<path d="M228.812 395.524C228.293 395.524 227.847 395.363 227.467 395.042C227.094 394.72 226.911 394.292 226.911 393.755C226.911 393.239 227.094 392.819 227.467 392.497C227.847 392.168 228.293 392 228.812 392C229.338 392 229.784 392.168 230.157 392.497C230.527 392.819 230.713 393.239 230.713 393.755C230.713 394.292 230.527 394.72 230.157 395.042C229.784 395.363 229.338 395.524 228.812 395.524ZM230.347 409.81H227.262V396.942H230.347V409.81Z" fill="#0A55B0"/>
<path d="M239.31 409.81H236.225V396.942H239.31V398.58C239.837 397.86 240.382 397.363 240.948 397.089C241.511 396.818 242.136 396.679 242.82 396.679C243.997 396.679 244.889 396.891 245.496 397.308C246.099 397.728 246.549 398.237 246.841 398.829C247.093 399.395 247.243 399.977 247.294 400.569C247.342 401.154 247.368 401.768 247.368 402.411V409.81H244.297V402.353C244.297 401.702 244.242 401.176 244.136 400.774C244.026 400.364 243.865 400.039 243.653 399.794C243.281 399.414 242.736 399.224 242.016 399.224C241.146 399.224 240.499 399.483 240.071 399.999C239.808 400.302 239.61 400.708 239.486 401.212C239.369 401.72 239.31 402.404 239.31 403.259V409.81Z" fill="#0A55B0"/>
<path d="M259.05 414.694C258.18 414.694 257.324 414.57 256.476 414.329C255.628 414.095 254.897 413.671 254.283 413.057C253.669 412.45 253.274 411.598 253.098 410.498H256.213C256.407 411.119 256.739 411.572 257.207 411.858C257.675 412.139 258.282 412.282 259.035 412.282C260.088 412.282 260.841 412.04 261.302 411.565C261.77 411.086 262.004 410.472 262.004 409.723V407.909C261.485 408.641 260.936 409.138 260.351 409.401C259.774 409.657 259.108 409.781 258.348 409.781C257.226 409.781 256.242 409.5 255.394 408.933C254.546 408.37 253.881 407.599 253.406 406.623C252.938 405.65 252.704 404.532 252.704 403.274C252.704 401.987 252.938 400.854 253.406 399.867C253.881 398.873 254.546 398.094 255.394 397.527C256.242 396.964 257.226 396.679 258.348 396.679C259.108 396.679 259.774 396.818 260.351 397.089C260.936 397.363 261.485 397.86 262.004 398.58V396.942H265.104V408.991C265.104 410.454 264.833 411.598 264.299 412.428C263.762 413.265 263.035 413.85 262.121 414.183C261.203 414.522 260.179 414.694 259.05 414.694ZM259.079 407.134C259.73 407.134 260.307 406.97 260.805 406.637C261.302 406.297 261.689 405.833 261.974 405.248C262.256 404.656 262.398 403.983 262.398 403.23C262.398 402.481 262.256 401.812 261.974 401.227C261.689 400.635 261.302 400.17 260.805 399.838C260.307 399.498 259.73 399.326 259.079 399.326C258.414 399.326 257.84 399.501 257.354 399.852C256.864 400.196 256.484 400.664 256.213 401.256C255.95 401.841 255.818 402.499 255.818 403.23C255.818 403.961 255.95 404.627 256.213 405.219C256.484 405.804 256.864 406.272 257.354 406.623C257.84 406.966 258.414 407.134 259.079 407.134Z" fill="#0A55B0"/>
<path d="M283.26 409.81H280.16V392.322H283.26V398.58C283.775 397.86 284.312 397.363 284.868 397.089C285.431 396.818 286.056 396.679 286.74 396.679C287.917 396.679 288.809 396.891 289.416 397.308C290.03 397.729 290.476 398.237 290.761 398.829C291.032 399.395 291.189 399.977 291.229 400.569C291.277 401.154 291.302 401.768 291.302 402.411V409.81H288.217V402.353C288.217 401.106 288.005 400.255 287.588 399.794C287.226 399.414 286.685 399.224 285.965 399.224C285.077 399.224 284.419 399.483 283.991 399.999C283.728 400.302 283.537 400.708 283.421 401.212C283.311 401.72 283.26 402.404 283.26 403.26V409.81Z" fill="#0A55B0"/>
<path d="M298.611 395.524C298.092 395.524 297.646 395.363 297.266 395.042C296.893 394.72 296.71 394.292 296.71 393.755C296.71 393.239 296.893 392.819 297.266 392.497C297.646 392.168 298.092 392 298.611 392C299.138 392 299.584 392.168 299.957 392.497C300.326 392.819 300.512 393.239 300.512 393.755C300.512 394.292 300.326 394.72 299.957 395.042C299.584 395.363 299.138 395.524 298.611 395.524ZM300.147 409.81H297.061V396.942H300.147V409.81Z" fill="#0A55B0"/>
<path d="M311.201 410.059C310.09 410.059 309.103 409.778 308.248 409.211C307.389 408.648 306.72 407.862 306.244 406.857C305.776 405.844 305.542 404.678 305.542 403.362C305.542 402.057 305.776 400.902 306.244 399.896C306.72 398.884 307.389 398.094 308.248 397.527C309.103 396.964 310.09 396.679 311.201 396.679C311.962 396.679 312.627 396.811 313.205 397.074C313.779 397.337 314.323 397.842 314.842 398.58V392.322H317.942V409.81H314.842V408.187C314.323 408.9 313.779 409.394 313.205 409.664C312.627 409.927 311.962 410.059 311.201 410.059ZM311.918 407.398C312.912 407.398 313.709 407.029 314.316 406.286C314.93 405.537 315.237 404.561 315.237 403.362C315.237 402.174 314.93 401.205 314.316 400.452C313.709 399.703 312.912 399.326 311.918 399.326C310.931 399.326 310.141 399.706 309.549 400.467C308.953 401.227 308.657 402.192 308.657 403.362C308.657 404.532 308.953 405.497 309.549 406.257C310.141 407.018 310.931 407.398 311.918 407.398Z" fill="#0A55B0"/>
<path d="M329.837 410.059C328.521 410.059 327.369 409.777 326.386 409.211C325.399 408.637 324.635 407.851 324.09 406.857C323.553 405.862 323.286 404.733 323.286 403.464C323.286 402.616 323.41 401.79 323.666 400.978C323.929 400.17 324.328 399.443 324.865 398.799C325.399 398.149 326.071 397.63 326.883 397.249C327.691 396.869 328.645 396.679 329.749 396.679C330.568 396.679 331.361 396.811 332.132 397.074C332.911 397.33 333.602 397.728 334.209 398.273C334.823 398.81 335.309 399.501 335.671 400.349C336.029 401.19 336.212 402.188 336.212 403.347V404.005H326.488C326.517 404.29 326.576 404.561 326.663 404.824C326.759 405.087 326.861 405.321 326.971 405.526C327.27 406.122 327.676 406.586 328.184 406.915C328.7 407.237 329.288 407.398 329.954 407.398C330.685 407.398 331.299 407.208 331.796 406.827C332.293 406.447 332.637 406.001 332.834 405.482H336.007C335.762 406.301 335.371 407.061 334.838 407.763C334.3 408.458 333.617 409.013 332.79 409.43C331.971 409.847 330.984 410.059 329.837 410.059ZM326.634 401.695H333.054C333.032 401.53 332.988 401.34 332.922 401.124C332.853 400.912 332.736 400.7 332.571 400.496C332.279 400.039 331.887 399.699 331.401 399.472C330.922 399.238 330.4 399.121 329.837 399.121C329.27 399.121 328.755 399.238 328.287 399.472C327.819 399.699 327.431 400.039 327.131 400.496C326.963 400.7 326.846 400.912 326.78 401.124C326.711 401.34 326.663 401.53 326.634 401.695Z" fill="#0A55B0"/>
<path d="M354.437 410.059C353.227 410.059 352.218 409.737 351.41 409.094C350.61 408.443 350.211 407.507 350.211 406.286C350.211 405.595 350.343 405.01 350.606 404.532C350.877 404.045 351.239 403.651 351.688 403.347C352.098 403.055 352.566 402.828 353.092 402.66C353.619 402.495 354.149 402.36 354.686 402.25L358.517 401.534C358.488 400.737 358.276 400.13 357.888 399.721C357.508 399.311 356.938 399.107 356.177 399.107C355.593 399.107 355.073 399.278 354.627 399.618C354.178 399.962 353.889 400.437 353.765 401.051H350.694C350.848 400.05 351.198 399.224 351.747 398.58C352.302 397.937 352.968 397.462 353.75 397.147C354.54 396.836 355.351 396.679 356.192 396.679C356.941 396.679 357.658 396.789 358.342 397.001C359.033 397.206 359.617 397.535 360.096 397.981C360.601 398.419 360.963 398.927 361.178 399.501C361.39 400.079 361.515 400.678 361.544 401.3C361.581 401.914 361.602 402.521 361.602 403.113V409.81H358.517V408.07C358.195 408.637 357.804 409.065 357.347 409.357C356.945 409.613 356.499 409.792 356.002 409.898C355.505 410.004 354.982 410.059 354.437 410.059ZM355.183 407.632C355.797 407.632 356.346 407.511 356.835 407.266C357.508 406.926 357.961 406.473 358.195 405.906C358.437 405.343 358.565 404.641 358.576 403.8L355.505 404.429C355.066 404.499 354.704 404.597 354.423 404.722C354.138 404.839 353.904 404.985 353.721 405.16C353.604 405.277 353.505 405.424 353.428 405.599C353.348 405.767 353.311 405.957 353.311 406.169C353.311 406.637 353.491 406.999 353.852 407.251C354.211 407.507 354.657 407.632 355.183 407.632Z" fill="#0A55B0"/>
<path d="M370.405 409.81H367.32V396.942H370.405V398.58C370.932 397.86 371.476 397.363 372.043 397.089C372.606 396.818 373.231 396.679 373.915 396.679C375.092 396.679 375.984 396.891 376.591 397.308C377.194 397.728 377.643 398.237 377.936 398.829C378.188 399.395 378.338 399.977 378.389 400.569C378.437 401.154 378.462 401.768 378.462 402.411V409.81H375.392V402.353C375.392 401.702 375.337 401.176 375.231 400.774C375.121 400.364 374.96 400.039 374.748 399.794C374.375 399.414 373.831 399.224 373.11 399.224C372.24 399.224 371.593 399.483 371.166 399.999C370.902 400.302 370.705 400.708 370.581 401.212C370.464 401.72 370.405 402.404 370.405 403.259V409.81Z" fill="#0A55B0"/>
<path d="M389.413 410.059C388.302 410.059 387.315 409.778 386.459 409.211C385.6 408.648 384.931 407.862 384.456 406.857C383.988 405.844 383.754 404.678 383.754 403.362C383.754 402.057 383.988 400.902 384.456 399.896C384.931 398.884 385.6 398.094 386.459 397.527C387.315 396.964 388.302 396.679 389.413 396.679C390.173 396.679 390.839 396.811 391.416 397.074C391.99 397.337 392.535 397.842 393.054 398.58V392.322H396.154V409.81H393.054V408.187C392.535 408.9 391.99 409.394 391.416 409.664C390.839 409.927 390.173 410.059 389.413 410.059ZM390.129 407.398C391.124 407.398 391.921 407.029 392.527 406.286C393.142 405.537 393.449 404.561 393.449 403.362C393.449 402.174 393.142 401.205 392.527 400.452C391.921 399.703 391.124 399.326 390.129 399.326C389.142 399.326 388.353 399.706 387.761 400.467C387.165 401.227 386.869 402.192 386.869 403.362C386.869 404.532 387.165 405.497 387.761 406.257C388.353 407.018 389.142 407.398 390.129 407.398Z" fill="#0A55B0"/>
<path d="M416.787 410.059C415.8 410.059 414.865 409.902 413.98 409.591C413.092 409.28 412.346 408.783 411.743 408.099C411.147 407.42 410.77 406.546 410.617 405.482H413.658C413.863 406.184 414.232 406.721 414.77 407.091C415.303 407.452 415.969 407.632 416.758 407.632C417.42 407.632 417.961 407.507 418.381 407.251C418.809 406.988 419.025 406.619 419.025 406.14C419.025 405.76 418.882 405.46 418.601 405.233C418.316 405.01 417.946 404.839 417.489 404.722C417.029 404.597 416.528 404.48 415.983 404.371C415.428 404.265 414.861 404.137 414.287 403.991C413.72 403.837 413.198 403.625 412.722 403.362C412.254 403.091 411.874 402.729 411.582 402.28C411.289 401.834 411.143 401.249 411.143 400.525C411.143 399.618 411.37 398.884 411.83 398.317C412.287 397.754 412.891 397.337 413.644 397.074C414.404 396.811 415.226 396.679 416.115 396.679C417.614 396.679 418.868 397.059 419.873 397.82C420.885 398.573 421.503 399.648 421.73 401.051H418.82C418.634 400.349 418.286 399.852 417.782 399.56C417.285 399.26 416.722 399.107 416.1 399.107C415.486 399.107 414.996 399.224 414.638 399.458C414.276 399.691 414.097 400.01 414.097 400.408C414.097 400.759 414.232 401.037 414.506 401.241C414.788 401.439 415.153 401.589 415.603 401.695C416.049 401.804 416.532 401.91 417.051 402.016C417.625 402.126 418.206 402.25 418.791 402.397C419.376 402.543 419.917 402.755 420.414 403.025C420.911 403.289 421.31 403.654 421.613 404.122C421.924 404.583 422.081 405.175 422.081 405.906C422.081 407.164 421.613 408.173 420.677 408.933C419.749 409.686 418.454 410.059 416.787 410.059Z" fill="#0A55B0"/>
<path d="M433.493 410.059C432.177 410.059 431.025 409.777 430.042 409.211C429.055 408.637 428.291 407.851 427.746 406.857C427.209 405.862 426.942 404.733 426.942 403.464C426.942 402.616 427.066 401.79 427.322 400.978C427.585 400.17 427.984 399.443 428.521 398.799C429.055 398.149 429.728 397.63 430.539 397.249C431.347 396.869 432.301 396.679 433.405 396.679C434.224 396.679 435.017 396.811 435.789 397.074C436.567 397.33 437.258 397.728 437.865 398.273C438.479 398.81 438.965 399.501 439.327 400.349C439.686 401.19 439.868 402.188 439.868 403.347V404.005H430.144C430.173 404.29 430.232 404.561 430.32 404.824C430.415 405.087 430.517 405.321 430.627 405.526C430.927 406.122 431.332 406.586 431.84 406.915C432.356 407.237 432.944 407.398 433.61 407.398C434.341 407.398 434.955 407.208 435.452 406.827C435.949 406.447 436.293 406.001 436.49 405.482H439.664C439.419 406.301 439.028 407.061 438.494 407.763C437.956 408.458 437.273 409.013 436.447 409.43C435.628 409.847 434.641 410.059 433.493 410.059ZM430.29 401.695H436.71C436.688 401.53 436.644 401.34 436.578 401.124C436.509 400.912 436.392 400.7 436.227 400.496C435.935 400.039 435.544 399.699 435.057 399.472C434.579 399.238 434.056 399.121 433.493 399.121C432.926 399.121 432.411 399.238 431.943 399.472C431.475 399.699 431.087 400.039 430.788 400.496C430.619 400.7 430.503 400.912 430.437 401.124C430.367 401.34 430.32 401.53 430.29 401.695Z" fill="#0A55B0"/>
<path d="M451.212 410.059C449.896 410.059 448.744 409.777 447.761 409.211C446.774 408.637 446.01 407.851 445.465 406.857C444.928 405.862 444.661 404.733 444.661 403.464C444.661 402.616 444.785 401.79 445.041 400.978C445.304 400.17 445.703 399.443 446.24 398.799C446.774 398.149 447.446 397.63 448.258 397.249C449.066 396.869 450.02 396.679 451.124 396.679C451.943 396.679 452.736 396.811 453.507 397.074C454.286 397.33 454.977 397.728 455.584 398.273C456.198 398.81 456.684 399.501 457.046 400.349C457.404 401.19 457.587 402.188 457.587 403.347V404.005H447.863C447.892 404.29 447.951 404.561 448.038 404.824C448.134 405.087 448.236 405.321 448.346 405.526C448.645 406.122 449.051 406.586 449.559 406.915C450.075 407.237 450.663 407.398 451.329 407.398C452.06 407.398 452.674 407.208 453.171 406.827C453.668 406.447 454.012 406.001 454.209 405.482H457.382C457.137 406.301 456.746 407.061 456.213 407.763C455.675 408.458 454.992 409.013 454.165 409.43C453.346 409.847 452.359 410.059 451.212 410.059ZM448.009 401.695H454.429C454.407 401.53 454.363 401.34 454.297 401.124C454.228 400.912 454.111 400.7 453.946 400.496C453.654 400.039 453.262 399.699 452.776 399.472C452.297 399.238 451.775 399.121 451.212 399.121C450.645 399.121 450.13 399.238 449.662 399.472C449.194 399.699 448.806 400.039 448.506 400.496C448.338 400.7 448.221 400.912 448.155 401.124C448.086 401.34 448.038 401.53 448.009 401.695Z" fill="#0A55B0"/>
<path d="M466.02 409.81H462.92V392.322H466.02V401.695L470.714 396.943H474.633L468.96 402.514L475.057 409.81H471.241L466.02 403.42V409.81Z" fill="#0A55B0"/>
<path d="M133.758 449.116H130.292L136.463 431.627H140.089L146.245 449.116H142.794L141.595 445.519H134.927L133.758 449.116ZM138.276 435.225L135.863 442.624H140.674L138.276 435.225Z" fill="#0A55B0"/>
<path d="M153.944 449.116H150.858V436.248H153.944V437.886C154.47 437.166 155.015 436.668 155.582 436.394C156.144 436.124 156.77 435.985 157.453 435.985C158.63 435.985 159.522 436.197 160.129 436.614C160.732 437.034 161.182 437.542 161.474 438.134C161.727 438.701 161.877 439.282 161.928 439.874C161.975 440.459 162.001 441.074 162.001 441.717V449.116H158.93V441.658C158.93 441.008 158.875 440.481 158.769 440.079C158.66 439.67 158.499 439.344 158.287 439.099C157.914 438.719 157.369 438.529 156.649 438.529C155.779 438.529 155.132 438.789 154.704 439.304C154.441 439.608 154.244 440.013 154.119 440.518C154.002 441.026 153.944 441.71 153.944 442.565V449.116Z" fill="#0A55B0"/>
<path d="M172.951 449.365C171.84 449.365 170.853 449.083 169.997 448.517C169.138 447.954 168.469 447.168 167.994 446.162C167.526 445.15 167.292 443.984 167.292 442.668C167.292 441.362 167.526 440.207 167.994 439.202C168.469 438.189 169.138 437.4 169.997 436.833C170.853 436.27 171.84 435.985 172.951 435.985C173.711 435.985 174.377 436.117 174.954 436.38C175.528 436.643 176.073 437.147 176.592 437.886V431.627H179.692V449.116H176.592V447.493C176.073 448.206 175.528 448.699 174.954 448.97C174.377 449.233 173.711 449.365 172.951 449.365ZM173.667 446.703C174.662 446.703 175.459 446.334 176.066 445.592C176.68 444.843 176.987 443.867 176.987 442.668C176.987 441.479 176.68 440.511 176.066 439.758C175.459 439.008 174.662 438.632 173.667 438.632C172.68 438.632 171.891 439.012 171.299 439.772C170.703 440.533 170.407 441.498 170.407 442.668C170.407 443.837 170.703 444.802 171.299 445.563C171.891 446.323 172.68 446.703 173.667 446.703Z" fill="#0A55B0"/>
<path d="M196.305 434.83C195.786 434.83 195.34 434.669 194.959 434.347C194.587 434.025 194.404 433.598 194.404 433.06C194.404 432.545 194.587 432.125 194.959 431.803C195.34 431.474 195.786 431.306 196.305 431.306C196.831 431.306 197.277 431.474 197.65 431.803C198.019 432.125 198.206 432.545 198.206 433.06C198.206 433.598 198.019 434.025 197.65 434.347C197.277 434.669 196.831 434.83 196.305 434.83ZM197.84 449.116H194.755V436.248H197.84V449.116Z" fill="#0A55B0"/>
<path d="M210.298 449.116H207.754C206.796 449.116 206.057 448.897 205.531 448.458C205.004 448.012 204.741 447.288 204.741 446.294V438.734H202.84V436.248H204.741V431.627H207.841V436.248H210.313V438.734H207.841V445.358C207.841 445.691 207.892 445.972 208.002 446.206C208.119 446.433 208.415 446.543 208.894 446.543H210.298V449.116Z" fill="#0A55B0"/>
<path d="M217.373 438.003H215.078V431.627H217.373V438.003Z" fill="#0A55B0"/>
<path d="M228.316 449.365C227.329 449.365 226.393 449.207 225.508 448.897C224.62 448.586 223.874 448.089 223.271 447.405C222.675 446.725 222.299 445.851 222.145 444.788H225.187C225.391 445.49 225.76 446.027 226.298 446.396C226.832 446.758 227.497 446.937 228.287 446.937C228.948 446.937 229.489 446.813 229.91 446.557C230.337 446.294 230.553 445.925 230.553 445.446C230.553 445.066 230.41 444.766 230.129 444.539C229.844 444.316 229.475 444.144 229.018 444.027C228.557 443.903 228.056 443.786 227.512 443.676C226.956 443.57 226.389 443.442 225.815 443.296C225.249 443.143 224.726 442.931 224.251 442.667C223.783 442.397 223.403 442.035 223.11 441.585C222.818 441.139 222.671 440.554 222.671 439.831C222.671 438.924 222.898 438.189 223.359 437.623C223.816 437.06 224.419 436.643 225.172 436.38C225.932 436.116 226.755 435.985 227.643 435.985C229.142 435.985 230.396 436.365 231.401 437.125C232.414 437.878 233.032 438.953 233.258 440.357H230.348C230.162 439.655 229.815 439.158 229.31 438.866C228.813 438.566 228.25 438.412 227.629 438.412C227.014 438.412 226.525 438.529 226.166 438.763C225.804 438.997 225.625 439.315 225.625 439.714C225.625 440.065 225.76 440.342 226.035 440.547C226.316 440.745 226.682 440.894 227.131 441C227.577 441.11 228.06 441.216 228.579 441.322C229.153 441.432 229.734 441.556 230.319 441.702C230.904 441.849 231.445 442.061 231.942 442.331C232.439 442.594 232.838 442.96 233.141 443.428C233.452 443.888 233.609 444.481 233.609 445.212C233.609 446.469 233.141 447.478 232.205 448.239C231.277 448.992 229.983 449.365 228.316 449.365Z" fill="#0A55B0"/>
<path d="M253.98 449.116H251.055L247.136 436.248H250.426L252.634 444.598L255.091 436.248H257.767L260.224 444.554L262.49 436.248H265.765L261.774 449.116H258.864L256.465 440.445L253.98 449.116Z" fill="#0A55B0"/>
<path d="M272.133 434.83C271.614 434.83 271.168 434.669 270.788 434.347C270.415 434.025 270.232 433.598 270.232 433.06C270.232 432.545 270.415 432.125 270.788 431.803C271.168 431.474 271.614 431.306 272.133 431.306C272.66 431.306 273.106 431.474 273.479 431.803C273.848 432.125 274.034 432.545 274.034 433.06C274.034 433.598 273.848 434.025 273.479 434.347C273.106 434.669 272.66 434.83 272.133 434.83ZM273.669 449.116H270.583V436.248H273.669V449.116Z" fill="#0A55B0"/>
<path d="M282.632 449.116H279.546V436.248H282.632V437.886C283.158 437.166 283.703 436.668 284.27 436.394C284.832 436.124 285.458 435.985 286.141 435.985C287.318 435.985 288.21 436.197 288.817 436.614C289.42 437.034 289.87 437.542 290.162 438.134C290.415 438.701 290.565 439.282 290.616 439.874C290.663 440.459 290.689 441.074 290.689 441.717V449.116H287.618V441.658C287.618 441.008 287.563 440.481 287.457 440.079C287.348 439.67 287.187 439.344 286.975 439.099C286.602 438.719 286.057 438.529 285.337 438.529C284.467 438.529 283.82 438.789 283.392 439.304C283.129 439.608 282.932 440.013 282.807 440.518C282.69 441.026 282.632 441.71 282.632 442.565V449.116Z" fill="#0A55B0"/>
<path d="M299.549 449.116H296.463V436.248H299.549V437.886C300.075 437.166 300.62 436.668 301.186 436.394C301.749 436.124 302.375 435.985 303.058 435.985C304.235 435.985 305.127 436.197 305.734 436.614C306.337 437.034 306.787 437.542 307.079 438.134C307.332 438.701 307.482 439.282 307.533 439.874C307.58 440.459 307.606 441.074 307.606 441.717V449.116H304.535V441.658C304.535 441.008 304.48 440.481 304.374 440.079C304.265 439.67 304.104 439.344 303.892 439.099C303.519 438.719 302.974 438.529 302.254 438.529C301.384 438.529 300.737 438.789 300.309 439.304C300.046 439.608 299.849 440.013 299.724 440.518C299.607 441.026 299.549 441.71 299.549 442.565V449.116Z" fill="#0A55B0"/>
<path d="M314.93 434.83C314.411 434.83 313.965 434.669 313.584 434.347C313.212 434.025 313.029 433.598 313.029 433.06C313.029 432.545 313.212 432.125 313.584 431.803C313.965 431.474 314.411 431.306 314.93 431.306C315.456 431.306 315.902 431.474 316.275 431.803C316.644 432.125 316.831 432.545 316.831 433.06C316.831 433.598 316.644 434.025 316.275 434.347C315.902 434.669 315.456 434.83 314.93 434.83ZM316.465 449.116H313.38V436.248H316.465V449.116Z" fill="#0A55B0"/>
<path d="M325.428 449.116H322.343V436.248H325.428V437.886C325.955 437.166 326.499 436.668 327.066 436.394C327.629 436.124 328.254 435.985 328.938 435.985C330.115 435.985 331.007 436.197 331.614 436.614C332.217 437.034 332.666 437.542 332.959 438.134C333.211 438.701 333.361 439.282 333.412 439.874C333.46 440.459 333.485 441.074 333.485 441.717V449.116H330.414V441.658C330.414 441.008 330.36 440.481 330.254 440.079C330.144 439.67 329.983 439.344 329.771 439.099C329.398 438.719 328.854 438.529 328.133 438.529C327.263 438.529 326.616 438.789 326.189 439.304C325.925 439.608 325.728 440.013 325.604 440.518C325.487 441.026 325.428 441.71 325.428 442.565V449.116Z" fill="#0A55B0"/>
<path d="M345.167 454C344.296 454 343.441 453.876 342.593 453.634C341.745 453.4 341.014 452.976 340.4 452.362C339.785 451.755 339.391 450.904 339.215 449.803H342.33C342.523 450.425 342.856 450.878 343.324 451.163C343.792 451.445 344.399 451.587 345.152 451.587C346.205 451.587 346.958 451.346 347.418 450.871C347.886 450.392 348.12 449.778 348.12 449.028V447.215C347.601 447.946 347.053 448.443 346.468 448.707C345.89 448.962 345.225 449.087 344.465 449.087C343.342 449.087 342.359 448.805 341.511 448.239C340.663 447.676 339.997 446.904 339.522 445.928C339.054 444.956 338.82 443.837 338.82 442.58C338.82 441.293 339.054 440.16 339.522 439.173C339.997 438.178 340.663 437.4 341.511 436.833C342.359 436.27 343.342 435.985 344.465 435.985C345.225 435.985 345.89 436.124 346.468 436.394C347.053 436.668 347.601 437.166 348.12 437.886V436.248H351.22V448.297C351.22 449.759 350.95 450.904 350.416 451.733C349.879 452.571 349.151 453.156 348.237 453.488C347.32 453.828 346.296 454 345.167 454ZM345.196 446.44C345.846 446.44 346.424 446.276 346.921 445.943C347.418 445.603 347.806 445.139 348.091 444.554C348.373 443.962 348.515 443.289 348.515 442.536C348.515 441.786 348.373 441.117 348.091 440.533C347.806 439.94 347.418 439.476 346.921 439.143C346.424 438.803 345.846 438.632 345.196 438.632C344.53 438.632 343.957 438.807 343.47 439.158C342.98 439.502 342.6 439.97 342.33 440.562C342.067 441.147 341.935 441.805 341.935 442.536C341.935 443.267 342.067 443.932 342.33 444.524C342.6 445.109 342.98 445.577 343.47 445.928C343.957 446.272 344.53 446.44 345.196 446.44Z" fill="#0A55B0"/>
<path d="M360.141 443.823H357.523C357.472 442.938 357.421 442.031 357.363 441.103C357.304 440.167 357.275 439.151 357.275 438.047V431.627H360.36V438.047C360.36 439.151 360.331 440.167 360.272 441.103C360.221 442.031 360.177 442.938 360.141 443.823ZM358.825 449.365C358.306 449.365 357.867 449.189 357.509 448.838C357.147 448.48 356.968 448.034 356.968 447.508C356.968 447.021 357.151 446.597 357.523 446.235C357.893 445.877 358.328 445.694 358.825 445.694C359.322 445.694 359.746 445.877 360.097 446.235C360.455 446.597 360.638 447.021 360.638 447.508C360.638 448.034 360.463 448.48 360.112 448.838C359.761 449.189 359.329 449.365 358.825 449.365Z" fill="#0A55B0"/>
</svg>
