<svg width="130" height="130" viewBox="0 0 130 130" fill="none" xmlns="http://www.w3.org/2000/svg">
<path d="M97.5 65C79.5492 65 65 79.5492 65 97.5C65 115.451 79.5492 130 97.5 130C115.451 130 130 115.451 130 97.5C130 79.5492 115.451 65 97.5 65ZM112.163 104.504C114.281 106.622 114.281 110.045 112.163 112.163C111.107 113.219 109.72 113.75 108.333 113.75C106.947 113.75 105.56 113.219 104.504 112.163L97.5 105.159L90.4963 112.163C89.44 113.219 88.0533 113.75 86.6667 113.75C85.28 113.75 83.8933 113.219 82.8371 112.163C80.7192 110.045 80.7192 106.622 82.8371 104.504L89.8408 97.5L82.8371 90.4963C80.7192 88.3783 80.7192 84.955 82.8371 82.8371C84.955 80.7192 88.3783 80.7192 90.4963 82.8371L97.5 89.8408L104.504 82.8371C106.622 80.7192 110.045 80.7192 112.163 82.8371C114.281 84.955 114.281 88.3783 112.163 90.4963L105.159 97.5L112.163 104.504ZM65 37.9167V2.49167C69.9454 4.36583 74.4954 7.25292 78.3521 11.1042L97.2237 29.9867C101.08 33.8379 103.968 38.3879 105.842 43.3333H70.4167C67.4267 43.3333 65 40.9013 65 37.9167ZM68.9054 130H27.0833C12.1496 130 0 117.85 0 102.917V27.0833C0 12.1496 12.1496 0 27.0833 0H51.5396C52.4225 0 53.2946 0.0704167 54.1667 0.13V37.9167C54.1667 46.8758 61.4575 54.1667 70.4167 54.1667H97.5C73.5692 54.1667 54.1667 73.5692 54.1667 97.5C54.1667 110.462 59.8867 122.059 68.9054 130Z" fill="#F15642"/>
</svg>
