<svg width="127" height="127" viewBox="0 0 127 127" fill="none" xmlns="http://www.w3.org/2000/svg">
<circle cx="63.5" cy="63.5" r="63.5" fill="url(#paint0_linear_100_42)"/>
<path d="M55.9514 84.1223L49.4409 90.4426C47.7337 92.1481 45.4182 93.1063 43.0039 93.1063C40.5896 93.1063 38.2741 92.1481 36.5669 90.4426C34.8597 88.7372 33.9006 86.424 33.9006 84.0121C33.9006 81.6002 34.8597 79.287 36.5669 77.5816L53.2663 60.8622C54.9054 59.2194 57.1138 58.2689 59.4348 58.2074C61.7558 58.1458 64.0116 58.9779 65.7356 60.5314L66.177 60.8989C66.8745 61.5811 67.8148 61.9585 68.7908 61.9482C69.7669 61.9379 70.6989 61.5406 71.3818 60.8438C72.0647 60.147 72.4425 59.2077 72.4321 58.2326C72.4218 57.2575 72.0241 56.3264 71.3266 55.6442C71.1179 55.377 70.897 55.1195 70.6645 54.8726C67.5246 52.1435 63.4637 50.7087 59.3044 50.8588C55.1452 51.0089 51.1985 52.7327 48.2638 55.681L31.3438 72.4004C28.4687 75.5267 26.9137 79.6418 27.0037 83.8863C27.0936 88.1307 28.8215 92.1764 31.8265 95.1783C34.8315 98.1803 38.8812 99.9065 43.1299 99.9963C47.3786 100.086 51.4978 98.5328 54.6273 95.6606L60.9907 89.4505C61.619 88.7657 61.9644 87.8687 61.9574 86.9398C61.9503 86.0109 61.5914 85.1191 60.9528 84.4439C60.3142 83.7687 59.4434 83.3602 58.5154 83.3005C57.5875 83.2408 56.6714 83.5345 55.9514 84.1223ZM95.2722 31.7961C92.1779 28.7242 87.9928 27 83.6304 27C79.2681 27 75.0829 28.7242 71.9887 31.7961L65.6253 38.0062C64.997 38.6909 64.6516 39.588 64.6586 40.5169C64.6656 41.4458 65.0246 42.3376 65.6631 43.0128C66.3017 43.688 67.1726 44.0965 68.1005 44.1562C69.0285 44.2158 69.9446 43.9222 70.6645 43.3343L77.0279 37.014C78.7351 35.3086 81.0506 34.3504 83.4649 34.3504C85.8793 34.3504 88.1947 35.3086 89.9019 37.014C91.6091 38.7195 92.5682 41.0327 92.5682 43.4446C92.5682 45.8565 91.6091 48.1696 89.9019 49.8751L73.2025 66.5945C71.5635 68.2373 69.355 69.1878 67.034 69.2493C64.7131 69.3109 62.4572 68.4788 60.7332 66.9252L60.2918 66.5578C59.5943 65.8756 58.6541 65.4981 57.678 65.5085C56.7019 65.5188 55.7699 65.9161 55.087 66.6129C54.4042 67.3097 54.0263 68.249 54.0367 69.2241C54.047 70.1992 54.4447 71.1303 55.1422 71.8124C55.4106 72.0841 55.693 72.3417 55.9882 72.5841C59.132 75.305 63.1911 76.7344 67.3478 76.5844C71.5046 76.4344 75.4499 74.7161 78.3889 71.7757L95.125 55.0563C98.2197 51.9846 99.9721 47.8145 99.9997 43.4565C100.027 39.0985 98.3277 34.9066 95.2722 31.7961Z" fill="white"/>
<defs>
<linearGradient id="paint0_linear_100_42" x1="104.14" y1="97.79" x2="-27.94" y2="-25.4" gradientUnits="userSpaceOnUse">
<stop stop-color="#0D5CB9"/>
<stop offset="0.745192" stop-color="#7AB029"/>
</linearGradient>
</defs>
</svg>
