<svg width="19" height="20" viewBox="0 0 19 20" fill="none" xmlns="http://www.w3.org/2000/svg">
<path d="M11.4779 1.35294V5.13071C11.4779 5.3812 11.5964 5.62142 11.8074 5.79854C12.0184 5.97565 12.3045 6.07516 12.6029 6.07516H17.1029" stroke="#DC3545" stroke-width="2" stroke-linecap="round" stroke-linejoin="round"/>
<path d="M6.9779 9.85294L11.4779 13.6307M11.4779 9.85294L6.9779 13.6307M14.8529 18.3529H3.60291C3.00617 18.3529 2.43387 18.1539 2.01191 17.7997C1.58996 17.4455 1.35291 16.965 1.35291 16.464V3.24182C1.35291 2.74086 1.58996 2.26041 2.01191 1.90618C2.43387 1.55194 3.00617 1.35294 3.60291 1.35294H11.4779L17.1029 6.07516V16.464C17.1029 16.965 16.8659 17.4455 16.4439 17.7997C16.0219 18.1539 15.4496 18.3529 14.8529 18.3529Z" stroke="#DC3545" stroke-width="2" stroke-linecap="round" stroke-linejoin="round"/>
</svg>
