<svg width="17" height="17" viewBox="0 0 17 17" fill="none" xmlns="http://www.w3.org/2000/svg">
<path d="M17 3.77778V15.1111C17 15.6306 16.8152 16.0754 16.4456 16.4456C16.076 16.8158 15.6312 17.0006 15.1111 17H1.88889C1.36944 17 0.924926 16.8152 0.555333 16.4456C0.185741 16.076 0.00062963 15.6312 0 15.1111V1.88889C0 1.36944 0.185111 0.924926 0.555333 0.555333C0.925556 0.185741 1.37007 0.00062963 1.88889 0H13.2222L17 3.77778ZM15.1111 4.58056L12.4194 1.88889H1.88889V15.1111H15.1111V4.58056ZM8.5 14.1667C9.28704 14.1667 9.95602 13.8912 10.5069 13.3403C11.0579 12.7894 11.3333 12.1204 11.3333 11.3333C11.3333 10.5463 11.0579 9.87731 10.5069 9.32639C9.95602 8.77546 9.28704 8.5 8.5 8.5C7.71296 8.5 7.04398 8.77546 6.49306 9.32639C5.94213 9.87731 5.66667 10.5463 5.66667 11.3333C5.66667 12.1204 5.94213 12.7894 6.49306 13.3403C7.04398 13.8912 7.71296 14.1667 8.5 14.1667ZM2.83333 6.61111H11.3333V2.83333H2.83333V6.61111ZM1.88889 4.58056V15.1111V1.88889V4.58056Z" fill="#007BFF"/>
</svg>
