<svg width="200" height="200" viewBox="0 0 200 200" fill="none" xmlns="http://www.w3.org/2000/svg">
<path d="M7.59375 123.625V147.641H192.87V123.625H7.59375Z" fill="#296172"/>
<path d="M7.59375 51.5723V75.5879H192.87V51.5723H7.59375Z" fill="#296172"/>
<mask id="mask0_1058_106" style="mask-type:luminance" maskUnits="userSpaceOnUse" x="0" y="71" width="200" height="57">
<path d="M0.734375 71.666H199.734V127.666H0.734375V71.666Z" fill="white"/>
</mask>
<g mask="url(#mask0_1058_106)">
<path d="M192.87 127.056H7.59375C3.80208 127.056 0.734375 123.983 0.734375 120.191V79.0195C0.734375 75.2279 3.80208 72.1602 7.59375 72.1602H192.87C196.661 72.1602 199.734 75.2279 199.734 79.0195V120.191C199.734 123.983 196.661 127.056 192.87 127.056Z" fill="#4184A9"/>
</g>
<mask id="mask1_1058_106" style="mask-type:luminance" maskUnits="userSpaceOnUse" x="0" y="143" width="200" height="57">
<path d="M0.734375 143.666H199.734V199.109H0.734375V143.666Z" fill="white"/>
</mask>
<g mask="url(#mask1_1058_106)">
<path d="M192.87 199.108H7.59375C3.80208 199.108 0.734375 196.035 0.734375 192.243V151.072C0.734375 147.28 3.80208 144.207 7.59375 144.207H192.87C196.661 144.207 199.734 147.28 199.734 151.072V192.243C199.734 196.035 196.661 199.108 192.87 199.108Z" fill="#4184A9"/>
</g>
<mask id="mask2_1058_106" style="mask-type:luminance" maskUnits="userSpaceOnUse" x="0" y="0" width="200" height="56">
<path d="M0.734375 0.109375H199.734V55.6667H0.734375V0.109375Z" fill="white"/>
</mask>
<g mask="url(#mask2_1058_106)">
<path d="M192.87 55.0052H7.59375C3.80208 55.0052 0.734375 51.9323 0.734375 48.1406V6.96875C0.734375 3.17708 3.80208 0.109375 7.59375 0.109375H192.87C196.661 0.109375 199.734 3.17708 199.734 6.96875V48.1406C199.734 51.9323 196.661 55.0052 192.87 55.0052Z" fill="#4184A9"/>
</g>
<path d="M35.0416 27.5566C35.0416 33.2389 30.4322 37.8483 24.7499 37.8483C19.0676 37.8483 14.4583 33.2389 14.4583 27.5566C14.4583 21.8743 19.0676 17.2598 24.7499 17.2598C30.4322 17.2598 35.0416 21.8743 35.0416 27.5566Z" fill="#86FDAA"/>
<path d="M69.3542 27.5566C69.3542 33.2389 64.7448 37.8483 59.0625 37.8483C53.375 37.8483 48.7656 33.2389 48.7656 27.5566C48.7656 21.8743 53.375 17.2598 59.0625 17.2598C64.7448 17.2598 69.3542 21.8743 69.3542 27.5566Z" fill="#86FDAA"/>
<path d="M141.406 34.4173H93.3698C89.5781 34.4173 86.5104 31.3496 86.5104 27.5579C86.5104 23.7611 89.5781 20.6934 93.3698 20.6934H141.406C145.198 20.6934 148.266 23.7611 148.266 27.5579C148.266 31.3496 145.198 34.4173 141.406 34.4173Z" fill="#35718A"/>
<path d="M35.0416 99.6094C35.0416 105.292 30.4322 109.901 24.7499 109.901C19.0676 109.901 14.4583 105.292 14.4583 99.6094C14.4583 93.9271 19.0676 89.3125 24.7499 89.3125C30.4322 89.3125 35.0416 93.9271 35.0416 99.6094Z" fill="#86FDAA"/>
<path d="M69.3542 99.6094C69.3542 105.292 64.7448 109.901 59.0625 109.901C53.375 109.901 48.7656 105.292 48.7656 99.6094C48.7656 93.9271 53.375 89.3125 59.0625 89.3125C64.7448 89.3125 69.3542 93.9271 69.3542 99.6094Z" fill="#86FDAA"/>
<path d="M141.406 106.468H93.3698C89.5781 106.468 86.5104 103.4 86.5104 99.6087C86.5104 95.8118 89.5781 92.7441 93.3698 92.7441H141.406C145.198 92.7441 148.266 95.8118 148.266 99.6087C148.266 103.4 145.198 106.468 141.406 106.468Z" fill="#35718A"/>
<path d="M35.0416 171.662C35.0416 177.344 30.4322 181.954 24.7499 181.954C19.0676 181.954 14.4583 177.344 14.4583 171.662C14.4583 165.975 19.0676 161.365 24.7499 161.365C30.4322 161.365 35.0416 165.975 35.0416 171.662Z" fill="#86FDAA"/>
<path d="M69.3542 171.662C69.3542 177.344 64.7448 181.954 59.0625 181.954C53.375 181.954 48.7656 177.344 48.7656 171.662C48.7656 165.975 53.375 161.365 59.0625 161.365C64.7448 161.365 69.3542 165.975 69.3542 171.662Z" fill="#86FDAA"/>
<path d="M141.406 178.521H93.3698C89.5781 178.521 86.5104 175.453 86.5104 171.661C86.5104 167.865 89.5781 164.797 93.3698 164.797H141.406C145.198 164.797 148.266 167.865 148.266 171.661C148.266 175.453 145.198 178.521 141.406 178.521Z" fill="#35718A"/>
<path d="M168.854 24.1243H165.422C163.531 24.1243 161.99 22.5827 161.99 20.6921C161.99 18.8014 163.531 17.2598 165.422 17.2598H168.854C170.745 17.2598 172.286 18.8014 172.286 20.6921C172.286 22.5827 170.745 24.1243 168.854 24.1243Z" fill="#35718A"/>
<path d="M186.01 24.1243H182.578C180.687 24.1243 179.146 22.5827 179.146 20.6921C179.146 18.8014 180.687 17.2598 182.578 17.2598H186.01C187.896 17.2598 189.437 18.8014 189.437 20.6921C189.437 22.5827 187.896 24.1243 186.01 24.1243Z" fill="#35718A"/>
<path d="M168.854 37.849H165.422C163.531 37.849 161.99 36.3073 161.99 34.4167C161.99 32.526 163.531 30.9844 165.422 30.9844H168.854C170.745 30.9844 172.286 32.526 172.286 34.4167C172.286 36.3073 170.745 37.849 168.854 37.849Z" fill="#35718A"/>
<path d="M186.01 37.849H182.578C180.687 37.849 179.146 36.3073 179.146 34.4167C179.146 32.526 180.687 30.9844 182.578 30.9844H186.01C187.896 30.9844 189.437 32.526 189.437 34.4167C189.437 36.3073 187.896 37.849 186.01 37.849Z" fill="#35718A"/>
<path d="M168.854 96.1771H165.422C163.531 96.1771 161.99 94.6354 161.99 92.7448C161.99 90.8542 163.531 89.3125 165.422 89.3125H168.854C170.745 89.3125 172.286 90.8542 172.286 92.7448C172.286 94.6354 170.745 96.1771 168.854 96.1771Z" fill="#35718A"/>
<path d="M186.01 96.1771H182.578C180.687 96.1771 179.146 94.6354 179.146 92.7448C179.146 90.8542 180.687 89.3125 182.578 89.3125H186.01C187.896 89.3125 189.437 90.8542 189.437 92.7448C189.437 94.6354 187.896 96.1771 186.01 96.1771Z" fill="#35718A"/>
<path d="M168.854 109.902H165.422C163.531 109.902 161.99 108.36 161.99 106.469C161.99 104.579 163.531 103.037 165.422 103.037H168.854C170.745 103.037 172.286 104.579 172.286 106.469C172.286 108.36 170.745 109.902 168.854 109.902Z" fill="#35718A"/>
<path d="M186.01 109.902H182.578C180.687 109.902 179.146 108.36 179.146 106.469C179.146 104.579 180.687 103.037 182.578 103.037H186.01C187.896 103.037 189.437 104.579 189.437 106.469C189.437 108.36 187.896 109.902 186.01 109.902Z" fill="#35718A"/>
<path d="M168.854 168.23H165.422C163.531 168.23 161.99 166.688 161.99 164.798C161.99 162.907 163.531 161.365 165.422 161.365H168.854C170.745 161.365 172.286 162.907 172.286 164.798C172.286 166.688 170.745 168.23 168.854 168.23Z" fill="#35718A"/>
<path d="M186.01 168.23H182.578C180.687 168.23 179.146 166.688 179.146 164.798C179.146 162.907 180.687 161.365 182.578 161.365H186.01C187.896 161.365 189.437 162.907 189.437 164.798C189.437 166.688 187.896 168.23 186.01 168.23Z" fill="#35718A"/>
<path d="M168.854 181.952H165.422C163.531 181.952 161.99 180.411 161.99 178.52C161.99 176.63 163.531 175.088 165.422 175.088H168.854C170.745 175.088 172.286 176.63 172.286 178.52C172.286 180.411 170.745 181.952 168.854 181.952Z" fill="#35718A"/>
<path d="M186.01 181.952H182.578C180.687 181.952 179.146 180.411 179.146 178.52C179.146 176.63 180.687 175.088 182.578 175.088H186.01C187.896 175.088 189.437 176.63 189.437 178.52C189.437 180.411 187.896 181.952 186.01 181.952Z" fill="#35718A"/>
</svg>
