<svg id="Certificate-Check--Streamline-Carbon.svg" xmlns="http://www.w3.org/2000/svg" viewBox="-0.5 -0.5 16 16" height="16" width="16"><desc>Certificate Check Streamline Icon: https://streamlinehq.com</desc><defs></defs><title>certificate--check</title><path d="M2.8125 7.5h2.8125v0.9375H2.8125Z" stroke-width="1"></path><path d="M2.8125 5.625h4.6875v0.9375H2.8125Z" stroke-width="1"></path><path d="M2.8125 3.75h4.6875v0.9375H2.8125Z" stroke-width="1"></path><path d="M6.5625 12.1875H1.875V2.8125h11.25v4.6875h0.9375V2.8125a0.9375 0.9375 0 0 0 -0.9375 -0.9375H1.875a0.9375 0.9375 0 0 0 -0.9375 0.9375v9.375a0.9375 0.9375 0 0 0 0.9375 0.9375h4.6875Z" stroke-width="1"></path><path d="M10.3125 11.9953125 9.0984375 10.78125 8.4375 11.4421875l1.875 1.875 3.75 -3.75L13.4015625 8.90625 10.3125 11.9953125z" stroke-width="1"></path><path id="_Transparent_Rectangle_" d="M0 0h15v15H0Z" fill="none" stroke-width="1"></path></svg>