<svg width="309" height="397" viewBox="0 0 309 397" fill="none" xmlns="http://www.w3.org/2000/svg">
<path d="M55.0624 0H202.918C206.96 0 210.546 1.93976 212.807 4.95028L305.67 105.609C307.846 107.975 308.93 110.978 308.93 113.973L309 341.833C309 356.94 302.789 370.72 292.814 380.737L292.745 380.799C282.754 390.785 269 397 253.938 397H55.0624C39.9299 397 26.1527 390.785 16.1702 380.784C6.20323 370.798 0 356.994 0 341.833V55.1669C0 39.9902 6.19549 26.1868 16.1625 16.1932C26.1372 6.20725 39.9144 0 55.0624 0ZM90.5161 197.111C83.6933 197.111 78.1561 191.563 78.1561 184.735C78.1561 177.9 83.6933 172.352 90.5161 172.352H218.476C225.299 172.352 230.836 177.9 230.836 184.735C230.836 191.563 225.299 197.111 218.476 197.111H154.496H90.5161ZM90.5161 258.703C83.6933 258.703 78.1561 253.155 78.1561 246.319C78.1561 239.491 83.6933 233.943 90.5161 233.943H211.692C218.515 233.943 224.052 239.491 224.052 246.319C224.052 253.155 218.515 258.703 211.692 258.703H90.5161ZM90.5161 320.302C83.6933 320.302 78.1561 314.754 78.1561 307.918C78.1561 301.083 83.6933 295.543 90.5161 295.543H193.284C200.107 295.543 205.636 301.083 205.636 307.918C205.636 314.754 200.107 320.302 193.284 320.302H90.5161ZM209.934 38.128V80.1899C210.763 90.7344 214.403 98.9823 220.769 104.429C227.452 110.148 237.535 113.368 250.933 113.608L279.533 113.569L209.934 38.128ZM284.288 138.305L250.747 138.266C231.231 137.956 215.835 132.68 204.753 123.191C193.206 113.29 186.678 99.2849 185.338 81.9822L185.222 80.2597V24.7592H55.0624C46.7217 24.7592 39.1245 28.1887 33.626 33.6898C28.1353 39.1988 24.7123 46.8104 24.7123 55.1669V341.833C24.7123 350.182 28.143 357.786 33.6338 363.287C39.14 368.811 46.7372 372.233 55.0624 372.233H253.938C262.286 372.233 269.875 368.819 275.351 363.326C280.872 357.801 284.288 350.19 284.288 341.833V138.305Z" fill="#3986E0"/>
</svg>
